<?xml version="1.0" encoding="UTF-8"?>
<svg id="Layer_1" data-name="Layer 1" xmlns="http://www.w3.org/2000/svg" viewBox="0 0 205 42">
  <defs>
    <style>
      .cls-1 {
        fill: none;
        stroke: #022db7;
        stroke-miterlimit: 10;
        stroke-width: 1.3px;
      }

      .cls-2 {
        fill: #fff;
      }

      .cls-3 {
        fill: #022db7;
      }

      .cls-4 {
        fill: #ffcd00;
      }
    </style>
  </defs>
  <rect class="cls-2" width="205" height="42"/>
  <g>
    <g>
      <g>
        <path class="cls-3" d="M38.49,23.83v-.05h5.02l-.03.21c-.31,1.95.08,2.89,1.61,2.89s2.08-.78,2.55-3.41l1.98-11.23h4.94l-1.95,11.16c-1.01,5.64-2.81,7.88-7.78,7.88s-7.13-2.68-6.35-7.44Z"/>
        <path class="cls-3" d="M59.96,24.33l-1.14,6.55h-4.66l3.28-18.65h12.64l-.75,4.24h-7.98l-.62,3.61h7.67l-.75,4.24h-7.67Z"/>
        <path class="cls-3" d="M77.45,22.43l-2.78,2.76-.99,5.7h-4.68l3.28-18.65h4.68l-1.25,7.2,7.02-7.2h5.85l-7.13,7.28,3.8,11.36h-5.07l-2.73-8.45Z"/>
      </g>
      <g id="JFK_Symbol" data-name="JFK Symbol">
        <circle id="JFK_Globe" data-name="JFK Globe" class="cls-3" cx="20.11" cy="21" r="13.4"/>
        <path id="JFK_Symbol_Shading_Yellow" data-name="JFK Symbol Shading Yellow" class="cls-4" d="M31.33,14.71c.12.21.24.43.34.65-.13-.02-.26-.03-.4-.01l-.99.1-.98-2.08.16-.2c.73.36,1.39.9,1.87,1.53ZM32.97,21c0,2.22-.57,4.32-1.56,6.14.18-.93.21-1.91.08-2.88-.01-.09-.07-.17-.15-.2l-.59-.28c-.27-.13-.46-.38-.52-.67l-.38-1.97c-.03-.17-.01-.35.06-.52,0-.02.6-1.51.87-2.07.17-.35.26-.41.41-.47l1.31-.5c.3,1.09.47,2.24.47,3.43ZM25.23,32.8c.22-.53.32-1.23.29-2.04-.02-.5-.32-.8-.58-1.01l-.74-.6-.45-.75c1.26-.57,2.44-1.25,3.5-2l1.07.46c.16.07.19.09.17.25-.15,1.26-.85,3.02-1.72,3.66-.32.24-.45.58-.52.81-.1.35-.21.68-.28.88-.24.12-.48.24-.73.35ZM9.21,14.17c.06.04.13.07.21.09.25.07,1.02.29,3.98-1.85,1.1-.8,2.11-1.63,2.51-1.97.31.29.96.93,1.43,1.47-.7,1.43-1.04,2.13-1.04,2.13-.05.11-.02.24.07.32l.91.77c.07.06.17.08.27.05l2.07-.77c.12-.05.2-.18.17-.3l-.24-1.21,1.01-1.19,1.25,1.91s.06.07.11.1l1.58.76.14.93-1.7,1.96-.65.19c-.07.02-.13.07-.17.14l-.7,1.5s-.03.08-.03.12l.09,2.34s.01.08.03.11l.25.5-.72-.47c-.09-.06-.2-.06-.29,0l-2.21,1.39c-.08.05-.12.13-.12.22,0,.09.04.17.11.23l1.81,1.28c.1.07.24.06.33-.02l.53-.46,1.24,1.13s.07.05.11.06l1.42.39c.1.03.2,0,.27-.07l.91-.97.87.64s.11.06.17.05l1.23-.06.39.42c-1.01.71-2.13,1.34-3.33,1.88l-.22-.36.2-.62c.02-.07.02-.14-.02-.21s-.09-.11-.16-.13l-1.84-.55-.52-.38c-.05-.04-.11-.05-.18-.05l-.99.07-2.34.24-2.16-1.85s-.07-.04-.11-.06c-.01,0-1.43-.38-2.65-.73-.05-3.2-1.34-6.5-2.24-7.6-.07-.09-.2-.12-.3-.08-.05.02-1.03.41-2.17,1.66.33-1.11.82-2.15,1.42-3.11ZM25.31,9.98c-.35.51-1.06.57-1.56.48l-1.86-.37-1.12-1.09c-.05-.05-.13-.08-.2-.08l-1.59.09-.53-.77c.54-.07,1.09-.11,1.66-.11,1.87,0,3.45.32,5.05,1.04.36.14.4.46.15.8Z"/>
        <path id="JFK_Symbol_Shading_White" data-name="JFK Symbol Shading White" class="cls-2" d="M8.7,26.93c-.27-.51-.5-1.05-.7-1.6-.53-2.24.51-4.89,2.88-7.3.57,1.44,1.09,3.42,1.09,5.49,0,.12.08.22.19.26,1.12.32,2.49.69,2.79.77l2.2,1.88c.06.05.13.07.2.06l2.44-.25.88-.06.48.35s.05.03.08.04l1.62.48-.16.47c-.02.07-.02.16.03.22l.25.41c-6,2.54-12.1,1.96-14.28-1.22ZM28.93,13.85l.94,2c.05.1.16.16.27.15l1.18-.12c.27-.03.49.04.67.2.13.32.25.65.36.98l-1.36.52c-.32.14-.49.32-.69.73-.28.57-.86,2.04-.88,2.1-.11.26-.14.55-.09.82l.38,1.97c.01.08.04.15.06.22-.74.83-1.59,1.6-2.55,2.31l-.52-.56c-.05-.06-.13-.09-.21-.08l-1.25.06-.99-.73c-.11-.08-.26-.07-.35.03l-.96,1.02-1.2-.33-1.37-1.25c-.1-.09-.25-.09-.36,0l-.55.48-1.31-.92,1.72-1.09.99.65c.08.05.18.06.27.01.09-.04.14-.13.15-.22l.03-.49s0-.09-.03-.14l-.29-.57-.08-2.21.63-1.33.6-.18c2.1-.52,5.06-1.87,6.78-4.02ZM26.64,32.07c.03-.11.07-.23.11-.35.08-.26.17-.42.32-.53,1-.73,1.77-2.62,1.94-4.02.07-.57-.32-.74-.49-.81l-.78-.34c.86-.65,1.64-1.36,2.32-2.11.13.14.28.26.46.35l.45.22c.18,1.54-.06,3.08-.69,4.39-1,1.29-2.23,2.38-3.64,3.21ZM17.87,8.34l.76,1.11c.05.08.14.12.24.12l1.63-.09,1.09,1.06s.08.06.13.07l1.94.38c.16.03.33.05.51.05.58,0,1.21-.19,1.59-.75.16-.22.23-.47.22-.73,1.61.83,3.03,1.99,4.16,3.39-.21-.13-.42-.24-.64-.34-.11-.05-.24-.02-.32.08l-.39.49s0,0,0,0c0,0,0,0,0,0-1.38,1.95-3.87,3.27-5.89,3.92l1.24-1.44c.05-.06.07-.14.06-.22l-.18-1.19c-.01-.09-.07-.16-.15-.2l-1.64-.79-1.4-2.15c-.05-.07-.12-.12-.21-.12-.08,0-.17.03-.22.09l-1.32,1.56c-.05.06-.07.15-.06.23l.22,1.11-1.71.63-.63-.53c.15-.31.49-1,1.02-2.1.05-.09.03-.21-.03-.29-.65-.79-1.72-1.78-1.77-1.82-.1-.09-.25-.09-.36,0-1.89,1.64-5.23,4.14-6.18,3.87-.02,0-.04-.02-.06-.03,1.92-2.79,4.9-4.78,8.36-5.39ZM7.49,18.52c1.04-1.45,2.08-2.09,2.48-2.3.2.29.44.73.68,1.27-1.82,1.8-2.93,3.74-3.24,5.58-.11-.68-.17-1.37-.17-2.07,0-.85.08-1.68.24-2.48ZM20.11,33.86c-4.17,0-7.89-2-10.24-5.09,1.48.97,3.5,1.48,5.79,1.48s4.99-.54,7.59-1.65l.52.85s.04.05.06.07l.78.63c.26.21.37.39.38.62.04,1.09-.19,1.98-.6,2.35-1.34.48-2.78.74-4.29.74Z"/>
      </g>
    </g>
    <path id="Logo_with_Clear_Space" data-name="Logo with Clear Space" class="cls-3" d="M174.76,9.19h-36.47v-1.45h37.92v26.72h-66.62v-6.37h1.46v4.91h63.71V9.19ZM160.94,14.26v1.45h-2.05v3.84h-1.9v-3.84h-2.04v-1.45h5.98ZM144.72,16.91c0,1.74-1.39,2.83-3.59,2.83s-3.59-1.1-3.59-2.83,1.39-2.83,3.59-2.83,3.59,1.1,3.59,2.83ZM142.7,16.91c0-.87-.62-1.46-1.57-1.46s-1.58.58-1.58,1.46.63,1.45,1.58,1.45,1.57-.57,1.57-1.45ZM151.66,19.56h-2.1l-1.12-1.73h-1.11v1.73h-1.91v-5.3h3.71c1.83,0,2.36.88,2.36,1.74,0,.6-.27,1.27-1.1,1.6l1.28,1.96ZM149.47,16.06c0-.32-.19-.59-.79-.59h-1.35v1.21h1.34c.61,0,.8-.28.8-.62ZM168.26,14.26l-2.57,3.55v1.75h-1.91v-1.75l-2.57-3.55h2.12l1.24,1.93c.14.19.17.26.19.32h.02c.02-.06.05-.13.19-.32l1.3-1.93h1.99ZM154.3,14.26v5.3h-1.91v-5.3h1.91ZM136.83,14.26v5.3h-1.9v-2.04h-2.55v2.04h-1.91v-5.3h1.91v1.99h2.55v-1.99h1.9ZM130.26,13.03h-2.1l-1.12-1.73h-1.11v1.73h-1.91v-5.3h3.71c1.83,0,2.36.88,2.36,1.74,0,.6-.28,1.27-1.1,1.6l1.28,1.95ZM128.07,9.54c0-.32-.19-.59-.79-.59h-1.35v1.21h1.34c.61,0,.8-.28.8-.62ZM136.39,7.74v1.46h-2.04v3.84h-1.9v-3.84h-2.04v-1.46h5.98ZM129.67,14.26v1.45h-2.04v3.84h-1.9v-3.84h-2.04v-1.45h5.98ZM131.86,20.88v5.3h-1.87l-2.27-2.47c-.13-.16-.38-.48-.45-.67h-.04v3.14h-1.73v-5.3h1.98l2.17,2.47c.18.23.34.43.45.66h.04v-3.12h1.72ZM115.95,20.88v5.3h-1.87l-2.27-2.47c-.13-.16-.38-.48-.45-.67h-.04v3.14h-1.73v-5.3h1.98l2.17,2.47c.18.23.34.43.45.66h.04v-3.12h1.72ZM135.94,20.88v3.39c0,1.54-1.1,1.99-2.37,1.99-.39,0-.77-.03-1.04-.09v-1.41c.16.02.34.04.51.04.53,0,1-.16,1-.89v-3.03h1.9ZM123.49,20.88l-2.57,3.55v1.75h-1.91v-1.75l-2.57-3.55h2.12l1.24,1.93c.14.19.17.26.19.32h.02c.02-.06.05-.13.19-.32l1.31-1.93h1.99ZM122.88,14.26v2.96c0,1.54-1.13,2.52-3.19,2.52s-3.19-1-3.19-2.54v-2.94h1.91v2.73c0,.79.43,1.28,1.28,1.28.81,0,1.28-.5,1.28-1.28v-2.73h1.91ZM116.45,19.56h-2.04l-.41-1.01h-2.48l-.41,1.01h-2.05l2.46-5.3h2.48l2.46,5.3ZM113.53,17.4l-.37-.92c-.22-.5-.34-.8-.4-1.14h-.02c-.07.34-.19.64-.4,1.14l-.37.92h1.56ZM115.66,9.55c0,1.19-.9,1.94-2.31,1.94h-1.84v1.54h-1.91v-5.3h3.71c1.48,0,2.35.67,2.35,1.81ZM113.65,9.61c0-.43-.28-.66-.82-.66h-1.32v1.32h1.31c.53,0,.83-.23.83-.66ZM123.31,10.38c0,1.74-1.39,2.83-3.59,2.83s-3.59-1.1-3.59-2.83,1.39-2.83,3.59-2.83,3.59,1.1,3.59,2.83ZM121.3,10.38c0-.87-.62-1.45-1.57-1.45s-1.58.58-1.58,1.45.63,1.45,1.58,1.45,1.57-.57,1.57-1.45Z"/>
    <line class="cls-1" x1="98.36" y1="7.55" x2="98.36" y2="34.45"/>
  </g>
</svg>