<svg width="252" height="121" viewBox="0 0 252 121" fill="none" xmlns="http://www.w3.org/2000/svg">
<g clip-path="url(#clip0_2061_69)">
<path d="M109.436 0.711136V6.14745H246.009V96.1917H7.41914V77.6051H2.03711V101.626H251.349V0.739662L109.436 0.711136Z" fill="#FEFE00"/>
<path d="M2.03042 50.372H9.42946L17.5528 59.6988C18.2235 60.5716 18.8086 61.3034 19.2278 62.1778H19.3669V50.372H25.817V70.3751H18.8371L10.3499 61.0499C9.87545 60.4591 8.92647 59.2188 8.64647 58.5139H8.50731V70.3751H2.03042V50.372ZM37.2618 63.7824L27.6295 50.372H35.5583L40.1926 57.6696C40.7241 58.4014 40.8347 58.6549 40.9186 58.8814H40.9756C41.0594 58.6549 41.1701 58.4014 41.7016 57.6696L46.5856 50.372H54.04L44.4093 63.7824V70.3751H37.2618V63.7824ZM61.5765 50.372H68.9739L77.0989 59.6988C77.7696 60.5716 78.3547 61.3034 78.7739 62.1778H78.9131V50.372H85.3631V70.3751H78.3832L69.896 61.0499C69.4216 60.4591 68.4726 59.2188 68.1926 58.5139H68.0534V70.3751H61.5765V50.372ZM91.726 70.7141C90.274 70.7141 88.8505 70.6017 87.8462 70.3751V65.0512C88.4599 65.1351 89.1305 65.1922 89.7442 65.1922C91.726 65.1922 93.4848 64.5997 93.4848 61.8102V50.372H100.606V63.1916C100.606 68.9954 96.4726 70.7141 91.726 70.7141ZM24.7356 7.54942C24.7356 12.0307 21.3571 14.8756 16.0807 14.8756H9.18467V20.708H2.0388V0.703255H15.9416C21.4695 0.703255 24.7356 3.2393 24.7356 7.54942ZM17.1974 7.776C17.1974 6.14125 16.136 5.29702 14.1257 5.29702H9.18467V10.2835H14.0989C16.0807 10.2835 17.1974 9.40908 17.1974 7.776ZM26.4927 10.7065C26.4927 4.1406 31.7138 7.62939e-06 39.9495 7.62939e-06C48.1567 7.62939e-06 53.3777 4.1406 53.3777 10.7065C53.3777 17.2707 48.1567 21.4113 39.9495 21.4113C31.7138 21.4113 26.4927 17.2707 26.4927 10.7065ZM45.8395 10.7065C45.8395 7.41012 43.5224 5.21142 39.9495 5.21142C36.3749 5.21142 34.0309 7.41012 34.0309 10.7065C34.0309 14.0029 36.3749 16.1713 39.9495 16.1713C43.5224 16.1713 45.8395 14.0029 45.8395 10.7065ZM67.3073 14.1707H63.1475V20.708H56V0.703255H69.8759C76.715 0.703255 78.6984 4.02814 78.6984 7.26913C78.6984 9.52321 77.6656 12.0861 74.5655 13.3265L79.3674 20.708H71.4956L67.3073 14.1707ZM63.1475 9.86058H68.1725C70.4611 9.86058 71.1602 8.78975 71.1602 7.52256C71.1602 6.31076 70.4342 5.29702 68.201 5.29702H63.1475V9.86058ZM102.316 6.19832H94.6668V20.708H87.5478V6.19832H79.9258V0.703255H102.316V6.19832ZM18.5102 41.552H9.21317L7.67737 45.3553H0L9.21317 25.3505H18.4817L27.6949 45.3553H20.046L18.5102 41.552ZM16.7782 37.2134L15.3832 33.7475C14.5734 31.8593 14.1257 30.7331 13.9028 29.4374H13.8189C13.5691 30.7331 13.1214 31.8593 12.3401 33.7475L10.9435 37.2134H16.7782ZM35.0084 25.3505V35.6625C35.0084 38.6501 36.5995 40.5097 39.8103 40.5097C42.8249 40.5097 44.5837 38.6215 44.5837 35.6625V25.3505H51.7313V36.537C51.7313 42.3409 47.5162 46.0602 39.8103 46.0602C32.1044 46.0602 27.8608 42.2838 27.8608 36.4531V25.3505H35.0084ZM77.1643 30.8455H69.5138V45.3553H62.3947V30.8455H54.7727V25.3505H77.1643V30.8455ZM103.964 45.3553H96.8448V37.6632H87.2963V45.3553H80.1488V25.3505H87.2963V32.8747H96.8448V25.3505H103.964V45.3553ZM106.586 35.3537C106.586 28.7895 111.807 24.6472 120.043 24.6472C128.252 24.6472 133.473 28.7895 133.473 35.3537C133.473 41.9179 128.252 46.0602 120.043 46.0602C111.807 46.0602 106.586 41.9179 106.586 35.3537ZM125.935 35.3537C125.935 32.0573 123.616 29.8586 120.043 29.8586C116.47 29.8586 114.124 32.0573 114.124 35.3537C114.124 38.6501 116.47 40.8186 120.043 40.8186C123.616 40.8186 125.935 38.6501 125.935 35.3537ZM147.401 38.8179H143.241V45.3553H136.095V25.3505H149.969C156.81 25.3505 158.792 28.6754 158.792 31.9164C158.792 34.1704 157.759 36.7333 154.661 37.9737L159.463 45.3553H151.589L147.401 38.8179ZM143.241 34.5078H148.268C150.556 34.5078 151.254 33.437 151.254 32.1698C151.254 30.958 150.528 29.9442 148.294 29.9442H143.241V34.5078ZM162.197 25.3505H169.345V45.3536H162.197V25.3505ZM194.191 30.8455H186.54V45.3553H179.421V30.8455H171.799V25.3505H194.191V30.8455ZM204.797 38.7625L195.167 25.3505H203.096L207.73 32.6481C208.26 33.3816 208.372 33.635 208.456 33.8599H208.511C208.595 33.635 208.706 33.3816 209.237 32.6481L214.123 25.3505H221.577L211.945 38.7625V45.3553H204.797V38.7625Z" fill="white"/>
<path d="M7.35044 107.121L1.17535 120.528H6.32098L7.35044 117.978H13.5809L14.6103 120.528H19.7375L13.5624 107.121H7.35044ZM8.51068 115.07L9.44625 112.749C9.96937 111.483 10.2695 110.728 10.4372 109.858H10.4942C10.6434 110.728 10.9435 111.483 11.4851 112.749L12.4206 115.07H8.51068Z" fill="white"/>
<path d="M21.2934 120.528H26.0836V107.121H21.2934V120.528Z" fill="white"/>
<path d="M44.217 111.52C44.217 109.349 42.8891 107.121 38.3035 107.121H29.0048V120.528H33.795V116.148H36.5833L39.39 120.528H44.6664L41.4472 115.58C43.5246 114.75 44.217 113.031 44.217 111.52ZM37.1634 113.258H33.795V110.2H37.1818C38.6791 110.2 39.1653 110.879 39.1653 111.69C39.1653 112.541 38.6975 113.258 37.1634 113.258Z" fill="white"/>
<path d="M59.2842 107.121H54.494V120.528H67.6674V116.827H59.2842V107.121Z" fill="white"/>
<path d="M74.9298 107.121L68.7548 120.528H73.9004L74.9298 117.978H81.1603L82.1897 120.528H87.3169L81.1418 107.121H74.9298ZM76.0901 115.07L77.0257 112.749C77.5488 111.483 77.8489 110.728 78.0166 109.858H78.0736C78.2228 110.728 78.5229 111.483 79.0645 112.749L80 115.07H76.0901Z" fill="white"/>
<path d="M100.493 112.956V115.033H100.4C100.12 114.448 99.7256 113.956 99.2779 113.372L93.8322 107.122H88.8743V120.529H93.2152V112.578H93.3074C93.4952 113.05 94.1323 113.88 94.4492 114.278L100.138 120.529H104.816V107.122H100.493V112.956Z" fill="white"/>
<path d="M116.683 107.121H107.758V120.528H116.57C121.416 120.528 124.653 117.695 124.653 113.598C124.653 109.462 121.659 107.121 116.683 107.121ZM115.784 117.393H112.548V110.236H115.896C118.104 110.236 119.602 111.501 119.602 113.692C119.602 115.958 118.161 117.393 115.784 117.393Z" fill="white"/>
<path d="M149.245 111.52C149.245 109.349 147.917 107.121 143.332 107.121H134.033V120.528H138.823V116.148H141.611L144.418 120.528H149.695L146.475 115.58C148.553 114.75 149.245 113.031 149.245 111.52ZM142.192 113.258H138.823V110.2H142.21C143.707 110.2 144.193 110.879 144.193 111.69C144.193 112.541 143.726 113.258 142.192 113.258Z" fill="white"/>
<path d="M156.696 107.121L150.52 120.528H155.666L156.696 117.978H162.926L163.955 120.528H169.083L162.908 107.121H156.696ZM157.856 115.07L158.791 112.749C159.314 111.483 159.615 110.728 159.782 109.858H159.839C159.988 110.728 160.289 111.483 160.83 112.749L161.766 115.07H157.856Z" fill="white"/>
<path d="M170.639 120.528H175.429V107.121H170.639V120.528Z" fill="white"/>
<path d="M183.14 107.121H178.35V120.528H191.524V116.827H183.14V107.121Z" fill="white"/>
<path d="M210.375 112.049L206.951 111.71C205.621 111.559 205.229 111.351 205.229 110.822C205.229 110.2 206.071 109.877 207.662 109.877C209.852 109.877 211.89 110.557 212.994 111.539L215.633 108.707C213.611 107.272 210.843 106.648 207.923 106.648C203.209 106.648 200.514 108.291 200.514 111.03C200.514 113.635 202.161 114.882 205.528 115.297L209.496 115.768C210.618 115.901 210.955 116.091 210.955 116.599C210.955 117.318 210.019 117.695 208.036 117.695C205.734 117.695 203.658 116.675 202.365 115.505L199.279 118.224C200.887 119.792 204.218 121 207.756 121C212.751 121 215.745 119.244 215.745 116.128C215.745 113.56 214.211 112.445 210.375 112.049Z" fill="white"/>
<path d="M223.089 115.26H231.864V112.275H223.089V110.369H232.183V107.121H218.299V120.528H232.314V117.28H223.089V115.26Z" fill="white"/>
<path d="M245.825 107.121H239.613L233.438 120.528H238.584L239.613 117.978H245.844L246.873 120.528H252L245.825 107.121ZM240.773 115.07L241.709 112.749C242.232 111.483 242.532 110.728 242.7 109.858H242.757C242.906 110.728 243.206 111.483 243.748 112.749L244.683 115.07H240.773Z" fill="white"/>
</g>
<defs>
<clipPath id="clip0_2061_69">
<rect width="252" height="121" fill="white"/>
</clipPath>
</defs>
</svg>
