<svg xmlns="http://www.w3.org/2000/svg" version="1.1" fill="#ffffff" width="141" height="32" viewBox="0 0 141 32">
  <!-- Generator: Adobe Illustrator 29.5.1, SVG Export Plug-In . SVG Version: 2.1.0 Build 141)  -->
  <defs>
    
  </defs>
  <g id="Layer_1" class="st3">
    <g>
      <path class="st0" d="M30.72,30.85v-.13c.3-.04.35-.08.28-.26-.06-.19-.16-.44-.27-.73h-1.03c-.08.21-.15.41-.21.61-.11.3-.06.35.3.38v.13h-1.05v-.13c.3-.04.37-.07.54-.49l1-2.48.15-.04c.3.81.62,1.71.93,2.54.15.41.22.45.53.48v.13h-1.18,0ZM30.25,28.32h0c-.15.41-.31.82-.45,1.21h.89l-.42-1.21Z"></path>
      <path class="st0" d="M36.08,28.5c-.09-.3-.21-.63-.63-.63-.37,0-.54.27-.54.52,0,.35.23.51.61.7.38.19.83.41.83.94,0,.5-.43.89-1.07.89-.2,0-.35-.04-.47-.07-.12-.04-.19-.08-.24-.1-.04-.1-.1-.51-.13-.73l.14-.03c.08.29.29.77.79.77.36,0,.58-.22.58-.57s-.27-.52-.63-.7c-.31-.16-.8-.4-.8-.93,0-.45.37-.84.99-.84.22,0,.42.05.61.11.02.17.04.35.08.65l-.14.03h0Z"></path>
      <path class="st0" d="M39.57,30.85c-.37-.41-.76-.88-1.2-1.38-.11-.13-.18-.15-.26-.13v.9c0,.42.05.45.44.48v.13h-1.25v-.13c.37-.03.41-.06.41-.48v-1.85c0-.43-.04-.46-.42-.48v-.13h1.24v.13c-.37.03-.42.06-.42.48v.83c.11-.03.2-.09.34-.22.27-.25.59-.58.81-.84.14-.17.14-.22-.08-.24h-.11v-.15h1.16v.13c-.37.03-.48.08-.79.35-.18.17-.53.5-.85.83.37.45.89,1.03,1.13,1.29.26.27.35.31.59.34v.13h-.74Z"></path>
      <path class="st0" d="M43.88,27.91c-.33.04-.39.08-.57.37-.22.35-.38.62-.61,1.04-.06.12-.08.18-.08.3v.64c0,.4.04.43.48.46v.13h-1.37v-.13c.43-.03.47-.06.47-.46v-.63c0-.09-.02-.14-.1-.28-.17-.29-.34-.6-.61-1.04-.19-.32-.25-.37-.54-.4v-.13h1.15v.13c-.34.04-.33.1-.24.26.2.38.44.77.65,1.12.18-.31.44-.78.57-1.07.11-.24.1-.27-.28-.31v-.13h1.07v.13h0Z"></path>
      <path class="st0" d="M46.05,27.78c.61,0,1.07.12,1.37.4.24.23.4.57.4,1.02,0,.57-.22.99-.59,1.26-.36.27-.84.39-1.43.39h-1.14v-.13c.41-.03.45-.06.45-.46v-1.9c0-.41-.04-.43-.41-.45v-.14h1.35ZM45.52,30.24c0,.36.16.45.51.45.9,0,1.32-.66,1.32-1.42,0-.49-.18-.91-.57-1.13-.22-.14-.5-.19-.82-.19-.2,0-.33.02-.38.06s-.06.08-.06.27v1.97Z"></path>
      <path class="st0" d="M50.47,30.85v-.13c.3-.04.35-.08.28-.26s-.16-.44-.27-.73h-1.03c-.08.21-.15.41-.21.61-.11.3-.06.35.3.38v.13h-1.05v-.13c.3-.04.37-.07.54-.49l1-2.48.15-.04c.3.81.62,1.71.93,2.54.15.41.22.45.53.48v.13h-1.18,0ZM50,28.32h0c-.15.41-.31.82-.45,1.21h.89l-.42-1.21h0Z"></path>
      <path class="st0" d="M55.75,27.91c-.27.01-.39.08-.4.28-.02.14-.03.35-.03.8v1.91h-.15l-2.05-2.48h0v1.19c0,.43.01.66.03.8.02.24.13.3.46.32v.13h-1.14v-.13c.28-.01.4-.08.42-.31.01-.15.03-.37.03-.81v-1.04c0-.35,0-.36-.1-.48-.1-.12-.2-.16-.43-.18v-.13h.71l2.01,2.38h.01v-1.16c0-.43-.02-.65-.03-.79-.02-.21-.14-.27-.47-.29v-.13h1.14v.13h0Z"></path>
      <path class="st0" d="M59.7,30.07c-.07.22-.19.57-.27.72-.13.03-.54.13-.89.13-1.2,0-1.73-.81-1.73-1.57,0-.99.78-1.65,1.86-1.65.39,0,.72.1.85.13.04.27.07.46.1.71l-.14.03c-.13-.5-.41-.7-.94-.7-.81,0-1.24.67-1.24,1.39,0,.89.53,1.49,1.26,1.49.49,0,.75-.26.99-.73l.14.05h0Z"></path>
      <path class="st0" d="M62.91,30.11c-.03.16-.13.6-.17.75h-2.32v-.13c.44-.03.48-.07.48-.45v-1.88c0-.43-.04-.44-.41-.47v-.13h2.15c0,.12.02.44.04.68l-.14.02c-.04-.2-.09-.3-.15-.41-.07-.1-.2-.13-.54-.13h-.37c-.15,0-.16,0-.16.15v1.08h.45c.43,0,.46-.04.52-.35h.14v.91h-.14c-.06-.34-.1-.37-.52-.37h-.46v.89c0,.22.03.32.12.38.09.06.26.06.5.06.37,0,.5-.04.61-.16.08-.09.17-.26.24-.44l.14.02h0Z"></path>
      <path class="st0" d="M68.38,30.07c-.07.22-.19.57-.27.72-.13.03-.54.13-.89.13-1.2,0-1.73-.81-1.73-1.57,0-.99.78-1.65,1.86-1.65.39,0,.72.1.85.13.04.27.07.46.1.71l-.14.03c-.13-.5-.41-.7-.94-.7-.81,0-1.24.67-1.24,1.39,0,.89.53,1.49,1.26,1.49.49,0,.75-.26.99-.73l.14.05h0Z"></path>
      <path class="st0" d="M72.47,29.28c0,1.02-.73,1.65-1.61,1.65s-1.57-.67-1.57-1.58c0-.85.61-1.64,1.62-1.64.82,0,1.56.62,1.56,1.57ZM69.78,29.22c0,.89.5,1.54,1.18,1.54.54,0,1.02-.44,1.02-1.35,0-1-.53-1.53-1.16-1.53-.54,0-1.03.46-1.03,1.34h0Z"></path>
      <path class="st0" d="M76.34,30.89c-.06,0-.11,0-.17,0-.36-.02-.56-.12-.78-.43-.17-.23-.34-.53-.49-.76-.08-.13-.16-.19-.41-.19h-.15v.75c0,.4.04.43.43.46v.13h-1.27v-.13c.4-.03.44-.06.44-.46v-1.9c0-.4-.04-.42-.41-.45v-.13h1.2c.35,0,.59.04.77.16.19.12.32.34.32.62,0,.41-.26.66-.61.81.08.16.28.47.43.69.17.25.27.37.39.49.13.14.24.19.35.22l-.02.12h0ZM74.56,29.35c.25,0,.4-.04.53-.13.19-.14.27-.33.27-.59,0-.51-.34-.7-.71-.7-.14,0-.22.02-.26.05-.03.02-.05.08-.05.21v1.16h.23Z"></path>
      <path class="st0" d="M78.24,27.78c.34,0,.62.06.81.2.19.14.31.35.31.67,0,.61-.47.91-.94.97-.07,0-.16,0-.22,0l-.36-.09v.74c0,.4.04.43.48.45v.13h-1.31v-.13c.39-.03.42-.07.42-.46v-1.89c0-.42-.04-.43-.4-.46v-.13h1.19,0ZM77.85,29.37c.06.02.19.06.35.06.31,0,.7-.17.7-.77,0-.51-.33-.73-.73-.73-.13,0-.24.02-.27.06-.04.03-.05.09-.05.22v1.16h0Z"></path>
      <path class="st0" d="M83.47,29.28c0,1.02-.73,1.65-1.61,1.65s-1.57-.67-1.57-1.58c0-.85.61-1.64,1.62-1.64.82,0,1.56.62,1.56,1.57ZM80.78,29.22c0,.89.5,1.54,1.18,1.54.54,0,1.02-.44,1.02-1.35,0-1-.53-1.53-1.16-1.53-.54,0-1.03.46-1.03,1.34h0Z"></path>
      <path class="st0" d="M87.27,30.89c-.06,0-.11,0-.17,0-.36-.02-.56-.12-.78-.43-.17-.23-.34-.53-.49-.76-.08-.13-.16-.19-.41-.19h-.15v.75c0,.4.04.43.43.46v.13h-1.27v-.13c.4-.03.44-.06.44-.46v-1.9c0-.4-.04-.42-.41-.45v-.13h1.2c.35,0,.59.04.77.16.19.12.32.34.32.62,0,.41-.26.66-.61.81.08.16.28.47.43.69.17.25.27.37.39.49.13.14.24.19.35.22l-.02.12h0ZM85.49,29.35c.25,0,.4-.04.53-.13.19-.14.27-.33.27-.59,0-.51-.34-.7-.71-.7-.14,0-.22.02-.26.05-.03.02-.05.08-.05.21v1.16h.23Z"></path>
      <path class="st0" d="M89.8,30.85v-.13c.3-.04.35-.08.28-.26s-.16-.44-.27-.73h-1.03c-.08.21-.15.41-.21.61-.11.3-.06.35.3.38v.13h-1.05v-.13c.3-.04.37-.07.54-.49l1-2.48.15-.04c.3.81.62,1.71.93,2.54.15.41.22.45.53.48v.13h-1.18,0ZM89.33,28.32h0c-.15.41-.31.82-.45,1.21h.89l-.42-1.21Z"></path>
      <path class="st0" d="M93.93,28.51c-.05-.23-.1-.35-.15-.42-.08-.11-.16-.15-.52-.15h-.34v2.33c0,.37.04.42.5.45v.13h-1.38v-.13c.44-.03.48-.08.48-.45v-2.33h-.3c-.4,0-.5.04-.56.15-.06.08-.1.21-.15.42h-.14c.02-.28.05-.59.06-.85h.1c.07.11.13.12.27.12h1.91c.13,0,.17-.03.25-.12h.1c0,.22.02.56.05.84h-.14s0,.01,0,.01Z"></path>
      <path class="st0" d="M95.01,30.85v-.13c.4-.03.43-.06.43-.46v-1.89c0-.4-.04-.43-.43-.46v-.13h1.28v.13c-.4.03-.43.06-.43.46v1.89c0,.41.04.43.43.46v.13h-1.28Z"></path>
      <path class="st0" d="M100.24,29.28c0,1.02-.73,1.65-1.61,1.65s-1.57-.67-1.57-1.58c0-.85.61-1.64,1.62-1.64.82,0,1.56.62,1.56,1.57ZM97.56,29.22c0,.89.5,1.54,1.18,1.54.54,0,1.02-.44,1.02-1.35,0-1-.53-1.53-1.16-1.53-.54,0-1.03.46-1.03,1.34h0Z"></path>
      <path class="st0" d="M104.52,27.91c-.27.01-.39.08-.4.28-.02.14-.03.35-.03.8v1.91h-.15l-2.05-2.48h0v1.19c0,.43.01.66.03.8.02.24.13.3.46.32v.13h-1.14v-.13c.28-.01.4-.08.42-.31.01-.15.03-.37.03-.81v-1.04c0-.35,0-.36-.1-.48-.1-.12-.2-.16-.43-.18v-.13h.71l2.01,2.38h.01v-1.16c0-.43-.02-.65-.03-.79-.02-.21-.14-.27-.47-.29v-.13h1.14v.13h0Z"></path>
      <rect class="st0" x="28.97" y="25.98" width="75.87" height=".31"></rect>
      <g>
        <path class="st0" d="M42.63,7.77c0-4.52-4.79-6.7-10.49-6.7-6.09,0-11.68,2.7-13.73,6.88-.56,1.11-.86,2.34-.86,3.6-.02,1.09.27,2.16.86,3.06.88,1.3,2.45,2.11,4.75,2.11,2.83,0,5.07-1.55,5.07-4.25,0,0,.04-.75-.84-.75-.71,0-.9.5-.88.75.11,2.11-1.15,3.81-3.39,3.81-2.51,0-3.56-2.13-3.56-4.42,0-4.67,3.52-7.77,7.18-9.1,1.72-.65,3.52-.96,5.36-.94,4.14,0,7.53,1.59,7.53,5.86,0,3.56-2.99,6.59-6.57,6.86l.15-.48c.73-2.62,1.63-5.48,3.1-7.6.08-.13.23-.34.4-.54l-.21-.25c-.31.19-.61.4-.9.63-6.86,5.36-7.07,20.43-16.22,20.43-.31,0-.63-.02-.94-.06-1.91-.31-2.91-1.59-2.91-3.37,0-.36.13-.84.13-1.11.02-.5-.4-.94-.9-.94h-.1c-.82,0-1.15.65-1.17,1.57-.06,2.66,1.91,4.21,4.94,4.5.33.02.67.04,1.02.04,7.14,0,11.51-5.4,13.37-11.95.94-.1,1.88-.31,2.78-.59,3.31-.92,7.03-3.14,7.03-7.05h0Z"></path>
        <path class="st0" d="M110.61,9.34h-2.51l-.56,1.32-.98,2.22h-1.17l-.36.75h1.21l-1.47,3.24c-1.05,2.28-2.68,4.52-3.62,4.52-.21,0-.33-.08-.33-.29s.06-.4.29-.98c.29-.69.78-1.7,1.13-2.43.52-1.07,1.36-2.72,1.36-3.54s-.52-1.47-1.55-1.47c-1.15,0-2.2.69-3.16,1.69l.63-1.51h-2.37l-1.93,4.4c-.78,1.55-2.34,4.12-3.33,4.12-.21,0-.29-.13-.29-.33.02-.19.06-.36.15-.54.08-.19,1.24-2.89,1.24-2.89l2.09-4.79h-2.55l-2.03,4.67c-.63,1.44-2.22,3.89-3.24,3.89-.17.02-.33-.11-.35-.29v-.08c0-.25.19-.71.33-1.05l1.07-2.34,2.2-4.79h-2.53l-.5,1.09c-.38.73-1,1.59-2.01,1.59-.48,0-.71-.19-.82-.38-.15-1.61-1.17-2.47-2.68-2.47-2.09,0-3.58,1.24-4.56,2.74-.65,1.05-1.15,2.15-1.51,3.33-.9,1.49-1.84,2.64-2.6,2.64-.19,0-.31-.11-.31-.36s.25-.82.34-1.03l1.65-3.52c.46-1.09.77-1.8.77-2.51,0-.75-.52-1.3-1.38-1.3-1.19,0-2.49.69-3.52,1.82.04-.19.04-.36.04-.54,0-.84-.42-1.28-1.28-1.28-1.09,0-2.22.65-3.24,1.82l.67-1.63h-2.3l-1.95,4.4c-.92,2.07-2.41,4.12-3.24,4.12-.19,0-.31-.11-.31-.36,0-.4.44-1.38.61-1.78l2.58-5.84c.19-.44-1.05-.71-2.62-.71s-3.26.8-4.48,1.82c-.86.71-1.49,1.07-1.8,1.07-.17,0-.23-.08-.23-.19,0-.36.86-1.36.86-2.14,0-.36-.19-.59-.67-.59-.92,0-2.01.88-2.8,1.8l.67-1.61h-2.26l-1.95,4.4c-.92,2.07-2.45,4.23-3.29,4.23-.19,0-.31-.11-.31-.36,0-.4.42-1.36.65-1.86l2.58-5.86c.19-.44-1.05-.71-2.62-.71-2.32,0-4.58,1.57-5.78,3.18-1.32,1.74-2.22,3.58-2.24,5.09-.02,1.21.61,1.97,1.86,1.97,1.4,0,2.53-1.11,3.18-1.95-.04.17-.06.34-.08.5,0,.84.33,1.44,1.36,1.44.9,0,2.09-.75,3.06-1.95l-.77,1.78h2.45l2.41-5.46c.8-1.78,1.69-2.7,1.95-2.7.08,0,.13.04.13.11,0,.19-.38.69-.38,1.15s.25.82.92.82c.52,0,1.11-.25,1.63-.59-1.24,1.67-2.07,3.43-2.07,4.88-.02,1.21.61,1.97,1.86,1.97,1.32,0,2.55-1.26,3.22-2.09-.02.19-.04.38-.04.59,0,.82.46,1.51,1.4,1.51,1.05,0,1.88-.65,2.93-1.93l-.77,1.76h2.51l2.3-5.21c1-2.26,2.37-3.47,3.04-3.47.17-.02.31.11.33.27v.06c-.02.25-.1.5-.21.73l-3.31,7.64h2.57l2.34-5.32c1-2.28,2.11-3.39,2.95-3.39.25,0,.36.13.36.4-.02.29-.11.59-.23.84l-2.26,4.81c-.21.46-.33.96-.38,1.46,0,.73.4,1.38,1.53,1.38,1.47,0,2.57-1.11,3.83-2.76v.36c.11,1.32.84,2.47,2.78,2.47,2.3,0,4.17-1.59,5.3-4.12.42-.9.71-1.84.82-2.83.25.13.54.19.82.17.38,0,.75-.08,1.09-.27l-.4.86c-.46.96-.96,2.03-1.36,2.93-.25.52-.4,1.11-.44,1.69,0,.9.5,1.55,1.53,1.55s2.43-.96,3.43-2.32h.02c-.06.27-.11.56-.11.86,0,.75.23,1.47,1.28,1.47,1.21,0,2.15-.88,3.08-1.99l-.77,1.76h2.53l2.03-4.6c1.15-2.6,2.3-4.17,3.37-4.17.19,0,.33.13.36.31v.06c0,.44-.63,1.63-1.19,2.83-.52,1.09-.92,1.93-1.19,2.58-.25.54-.4,1.13-.44,1.74,0,.8.44,1.4,1.42,1.4,1.46,0,2.95-1.42,3.75-2.49-.19.52-.27,1.05-.29,1.59,0,1.47.88,2.2,2.11,2.2.82,0,1.61-.27,2.28-.75.96-.67,1.74-1.67,2.39-2.6l-.44-.42c-.61.86-1.28,1.67-1.97,2.18-.38.31-.82.48-1.3.5-.52,0-.86-.27-.86-.94s.31-1.57.8-2.78c.02-.02.71-1.57,1.36-3.06.54-1.26,1.09-2.47,1.19-2.72h1.65l.34-.75h-1.63l1.55-3.54h0ZM39.22,21.42c-.36,0-.61-.13-.61-.59.02-1.24,1.05-3.43,2.32-5.19.9-1.21,2.07-2.11,3.33-2.11l-1.59,3.56c-1.19,2.68-2.49,4.33-3.45,4.33h0ZM54.87,21.42c-.36,0-.61-.13-.63-.59.02-1.24,1.05-3.43,2.32-5.19.9-1.21,2.07-2.11,3.33-2.11l-1.59,3.56c-1.21,2.74-2.45,4.33-3.43,4.33h0ZM82.67,14.49c-.06,1.36-1.26,4.65-2.66,6.61-.56.8-1.05,1.02-1.47,1.02-.59,0-.75-.48-.67-1.19.13-1.24,1.15-4.12,2.57-6.11.65-.9,1.09-1.28,1.59-1.28s.65.42.63.94h0Z"></path>
        <polygon class="st0" points="121.73 12.88 124.04 7.55 121.31 7.55 119 12.88 113.2 12.88 112.24 15.11 118.04 15.11 115.73 20.43 118.46 20.43 120.76 15.11 126.56 15.11 127.53 12.88 121.73 12.88"></polygon>
      </g>
    </g>
  </g>
  <g id="Layer_2">
    <g>
      <path class="st2" d="M30.72,30.85v-.13c.3-.04.35-.08.28-.26-.06-.19-.16-.44-.27-.73h-1.03c-.08.21-.15.41-.21.61-.11.3-.06.35.3.38v.13h-1.05v-.13c.3-.04.37-.07.54-.49l1-2.48.15-.04c.3.81.62,1.71.93,2.54.15.41.22.45.53.48v.13h-1.18,0ZM30.25,28.32h0c-.15.41-.31.82-.45,1.21h.89l-.42-1.21Z"></path>
      <path class="st2" d="M36.08,28.5c-.09-.3-.21-.63-.63-.63-.37,0-.54.27-.54.52,0,.35.23.51.61.7.38.19.83.41.83.94,0,.5-.43.89-1.07.89-.2,0-.35-.04-.47-.07-.12-.04-.19-.08-.24-.1-.04-.1-.1-.51-.13-.73l.14-.03c.08.29.29.77.79.77.36,0,.58-.22.58-.57s-.27-.52-.63-.7c-.31-.16-.8-.4-.8-.93,0-.45.37-.84.99-.84.22,0,.42.05.61.11.02.17.04.35.08.65l-.14.03h0Z"></path>
      <path class="st2" d="M39.57,30.85c-.37-.41-.76-.88-1.2-1.38-.11-.13-.18-.15-.26-.13v.9c0,.42.05.45.44.48v.13h-1.25v-.13c.37-.03.41-.06.41-.48v-1.85c0-.43-.04-.46-.42-.48v-.13h1.24v.13c-.37.03-.42.06-.42.48v.83c.11-.03.2-.09.34-.22.27-.25.59-.58.81-.84.14-.17.14-.22-.08-.24h-.11v-.15h1.16v.13c-.37.03-.48.08-.79.35-.18.17-.53.5-.85.83.37.45.89,1.03,1.13,1.29.26.27.35.31.59.34v.13h-.74Z"></path>
      <path class="st2" d="M43.88,27.91c-.33.04-.39.08-.57.37-.22.35-.38.62-.61,1.04-.06.12-.08.18-.08.3v.64c0,.4.04.43.48.46v.13h-1.37v-.13c.43-.03.47-.06.47-.46v-.63c0-.09-.02-.14-.1-.28-.17-.29-.34-.6-.61-1.04-.19-.32-.25-.37-.54-.4v-.13h1.15v.13c-.34.04-.33.1-.24.26.2.38.44.77.65,1.12.18-.31.44-.78.57-1.07.11-.24.1-.27-.28-.31v-.13h1.07v.13h0Z"></path>
      <path class="st2" d="M46.05,27.78c.61,0,1.07.12,1.37.4.24.23.4.57.4,1.02,0,.57-.22.99-.59,1.26-.36.27-.84.39-1.43.39h-1.14v-.13c.41-.03.45-.06.45-.46v-1.9c0-.41-.04-.43-.41-.45v-.14h1.35ZM45.52,30.24c0,.36.16.45.51.45.9,0,1.32-.66,1.32-1.42,0-.49-.18-.91-.57-1.13-.22-.14-.5-.19-.82-.19-.2,0-.33.02-.38.06s-.06.08-.06.27v1.97Z"></path>
      <path class="st2" d="M50.47,30.85v-.13c.3-.04.35-.08.28-.26s-.16-.44-.27-.73h-1.03c-.08.21-.15.41-.21.61-.11.3-.06.35.3.38v.13h-1.05v-.13c.3-.04.37-.07.54-.49l1-2.48.15-.04c.3.81.62,1.71.93,2.54.15.41.22.45.53.48v.13h-1.18,0ZM50,28.32h0c-.15.41-.31.82-.45,1.21h.89l-.42-1.21h0Z"></path>
      <path class="st2" d="M55.75,27.91c-.27.01-.39.08-.4.28-.02.14-.03.35-.03.8v1.91h-.15l-2.05-2.48h0v1.19c0,.43.01.66.03.8.02.24.13.3.46.32v.13h-1.14v-.13c.28-.01.4-.08.42-.31.01-.15.03-.37.03-.81v-1.04c0-.35,0-.36-.1-.48-.1-.12-.2-.16-.43-.18v-.13h.71l2.01,2.38h.01v-1.16c0-.43-.02-.65-.03-.79-.02-.21-.14-.27-.47-.29v-.13h1.14v.13h0Z"></path>
      <path class="st2" d="M59.7,30.07c-.07.22-.19.57-.27.72-.13.03-.54.13-.89.13-1.2,0-1.73-.81-1.73-1.57,0-.99.78-1.65,1.86-1.65.39,0,.72.1.85.13.04.27.07.46.1.71l-.14.03c-.13-.5-.41-.7-.94-.7-.81,0-1.24.67-1.24,1.39,0,.89.53,1.49,1.26,1.49.49,0,.75-.26.99-.73l.14.05h0Z"></path>
      <path class="st2" d="M62.91,30.11c-.03.16-.13.6-.17.75h-2.32v-.13c.44-.03.48-.07.48-.45v-1.88c0-.43-.04-.44-.41-.47v-.13h2.15c0,.12.02.44.04.68l-.14.02c-.04-.2-.09-.3-.15-.41-.07-.1-.2-.13-.54-.13h-.37c-.15,0-.16,0-.16.15v1.08h.45c.43,0,.46-.04.52-.35h.14v.91h-.14c-.06-.34-.1-.37-.52-.37h-.46v.89c0,.22.03.32.12.38.09.06.26.06.5.06.37,0,.5-.04.61-.16.08-.09.17-.26.24-.44l.14.02h0Z"></path>
      <path class="st2" d="M68.38,30.07c-.07.22-.19.57-.27.72-.13.03-.54.13-.89.13-1.2,0-1.73-.81-1.73-1.57,0-.99.78-1.65,1.86-1.65.39,0,.72.1.85.13.04.27.07.46.1.71l-.14.03c-.13-.5-.41-.7-.94-.7-.81,0-1.24.67-1.24,1.39,0,.89.53,1.49,1.26,1.49.49,0,.75-.26.99-.73l.14.05h0Z"></path>
      <path class="st2" d="M72.47,29.28c0,1.02-.73,1.65-1.61,1.65s-1.57-.67-1.57-1.58c0-.85.61-1.64,1.62-1.64.82,0,1.56.62,1.56,1.57ZM69.78,29.22c0,.89.5,1.54,1.18,1.54.54,0,1.02-.44,1.02-1.35,0-1-.53-1.53-1.16-1.53-.54,0-1.03.46-1.03,1.34h0Z"></path>
      <path class="st2" d="M76.34,30.89c-.06,0-.11,0-.17,0-.36-.02-.56-.12-.78-.43-.17-.23-.34-.53-.49-.76-.08-.13-.16-.19-.41-.19h-.15v.75c0,.4.04.43.43.46v.13h-1.27v-.13c.4-.03.44-.06.44-.46v-1.9c0-.4-.04-.42-.41-.45v-.13h1.2c.35,0,.59.04.77.16.19.12.32.34.32.62,0,.41-.26.66-.61.81.08.16.28.47.43.69.17.25.27.37.39.49.13.14.24.19.35.22l-.02.12h0ZM74.56,29.35c.25,0,.4-.04.53-.13.19-.14.27-.33.27-.59,0-.51-.34-.7-.71-.7-.14,0-.22.02-.26.05-.03.02-.05.08-.05.21v1.16h.23Z"></path>
      <path class="st2" d="M78.24,27.78c.34,0,.62.06.81.2.19.14.31.35.31.67,0,.61-.47.91-.94.97-.07,0-.16,0-.22,0l-.36-.09v.74c0,.4.04.43.48.45v.13h-1.31v-.13c.39-.03.42-.07.42-.46v-1.89c0-.42-.04-.43-.4-.46v-.13h1.19,0ZM77.85,29.37c.06.02.19.06.35.06.31,0,.7-.17.7-.77,0-.51-.33-.73-.73-.73-.13,0-.24.02-.27.06-.04.03-.05.09-.05.22v1.16h0Z"></path>
      <path class="st2" d="M83.47,29.28c0,1.02-.73,1.65-1.61,1.65s-1.57-.67-1.57-1.58c0-.85.61-1.64,1.62-1.64.82,0,1.56.62,1.56,1.57ZM80.78,29.22c0,.89.5,1.54,1.18,1.54.54,0,1.02-.44,1.02-1.35,0-1-.53-1.53-1.16-1.53-.54,0-1.03.46-1.03,1.34h0Z"></path>
      <path class="st2" d="M87.27,30.89c-.06,0-.11,0-.17,0-.36-.02-.56-.12-.78-.43-.17-.23-.34-.53-.49-.76-.08-.13-.16-.19-.41-.19h-.15v.75c0,.4.04.43.43.46v.13h-1.27v-.13c.4-.03.44-.06.44-.46v-1.9c0-.4-.04-.42-.41-.45v-.13h1.2c.35,0,.59.04.77.16.19.12.32.34.32.62,0,.41-.26.66-.61.81.08.16.28.47.43.69.17.25.27.37.39.49.13.14.24.19.35.22l-.02.12h0ZM85.49,29.35c.25,0,.4-.04.53-.13.19-.14.27-.33.27-.59,0-.51-.34-.7-.71-.7-.14,0-.22.02-.26.05-.03.02-.05.08-.05.21v1.16h.23Z"></path>
      <path class="st2" d="M89.8,30.85v-.13c.3-.04.35-.08.28-.26s-.16-.44-.27-.73h-1.03c-.08.21-.15.41-.21.61-.11.3-.06.35.3.38v.13h-1.05v-.13c.3-.04.37-.07.54-.49l1-2.48.15-.04c.3.81.62,1.71.93,2.54.15.41.22.45.53.48v.13h-1.18,0ZM89.33,28.32h0c-.15.41-.31.82-.45,1.21h.89l-.42-1.21Z"></path>
      <path class="st2" d="M93.93,28.51c-.05-.23-.1-.35-.15-.42-.08-.11-.16-.15-.52-.15h-.34v2.33c0,.37.04.42.5.45v.13h-1.38v-.13c.44-.03.48-.08.48-.45v-2.33h-.3c-.4,0-.5.04-.56.15-.06.08-.1.21-.15.42h-.14c.02-.28.05-.59.06-.85h.1c.07.11.13.12.27.12h1.91c.13,0,.17-.03.25-.12h.1c0,.22.02.56.05.84h-.14s0,.01,0,.01Z"></path>
      <path class="st2" d="M95.01,30.85v-.13c.4-.03.43-.06.43-.46v-1.89c0-.4-.04-.43-.43-.46v-.13h1.28v.13c-.4.03-.43.06-.43.46v1.89c0,.41.04.43.43.46v.13h-1.28Z"></path>
      <path class="st2" d="M100.24,29.28c0,1.02-.73,1.65-1.61,1.65s-1.57-.67-1.57-1.58c0-.85.61-1.64,1.62-1.64.82,0,1.56.62,1.56,1.57ZM97.56,29.22c0,.89.5,1.54,1.18,1.54.54,0,1.02-.44,1.02-1.35,0-1-.53-1.53-1.16-1.53-.54,0-1.03.46-1.03,1.34h0Z"></path>
      <path class="st2" d="M104.52,27.91c-.27.01-.39.08-.4.28-.02.14-.03.35-.03.8v1.91h-.15l-2.05-2.48h0v1.19c0,.43.01.66.03.8.02.24.13.3.46.32v.13h-1.14v-.13c.28-.01.4-.08.42-.31.01-.15.03-.37.03-.81v-1.04c0-.35,0-.36-.1-.48-.1-.12-.2-.16-.43-.18v-.13h.71l2.01,2.38h.01v-1.16c0-.43-.02-.65-.03-.79-.02-.21-.14-.27-.47-.29v-.13h1.14v.13h0Z"></path>
      <rect class="st2" x="28.97" y="25.98" width="75.87" height=".31"></rect>
      <g>
        <path class="st2" d="M42.63,7.77c0-4.52-4.79-6.7-10.49-6.7-6.09,0-11.68,2.7-13.73,6.88-.56,1.11-.86,2.34-.86,3.6-.02,1.09.27,2.16.86,3.06.88,1.3,2.45,2.11,4.75,2.11,2.83,0,5.07-1.55,5.07-4.25,0,0,.04-.75-.84-.75-.71,0-.9.5-.88.75.11,2.11-1.15,3.81-3.39,3.81-2.51,0-3.56-2.13-3.56-4.42,0-4.67,3.52-7.77,7.18-9.1,1.72-.65,3.52-.96,5.36-.94,4.14,0,7.53,1.59,7.53,5.86,0,3.56-2.99,6.59-6.57,6.86l.15-.48c.73-2.62,1.63-5.48,3.1-7.6.08-.13.23-.34.4-.54l-.21-.25c-.31.19-.61.4-.9.63-6.86,5.36-7.07,20.43-16.22,20.43-.31,0-.63-.02-.94-.06-1.91-.31-2.91-1.59-2.91-3.37,0-.36.13-.84.13-1.11.02-.5-.4-.94-.9-.94h-.1c-.82,0-1.15.65-1.17,1.57-.06,2.66,1.91,4.21,4.94,4.5.33.02.67.04,1.02.04,7.14,0,11.51-5.4,13.37-11.95.94-.1,1.88-.31,2.78-.59,3.31-.92,7.03-3.14,7.03-7.05h0Z"></path>
        <path class="st2" d="M110.61,9.34h-2.51l-.56,1.32-.98,2.22h-1.17l-.36.75h1.21l-1.47,3.24c-1.05,2.28-2.68,4.52-3.62,4.52-.21,0-.33-.08-.33-.29s.06-.4.29-.98c.29-.69.78-1.7,1.13-2.43.52-1.07,1.36-2.72,1.36-3.54s-.52-1.47-1.55-1.47c-1.15,0-2.2.69-3.16,1.69l.63-1.51h-2.37l-1.93,4.4c-.78,1.55-2.34,4.12-3.33,4.12-.21,0-.29-.13-.29-.33.02-.19.06-.36.15-.54.08-.19,1.24-2.89,1.24-2.89l2.09-4.79h-2.55l-2.03,4.67c-.63,1.44-2.22,3.89-3.24,3.89-.17.02-.33-.11-.35-.29v-.08c0-.25.19-.71.33-1.05l1.07-2.34,2.2-4.79h-2.53l-.5,1.09c-.38.73-1,1.59-2.01,1.59-.48,0-.71-.19-.82-.38-.15-1.61-1.17-2.47-2.68-2.47-2.09,0-3.58,1.24-4.56,2.74-.65,1.05-1.15,2.15-1.51,3.33-.9,1.49-1.84,2.64-2.6,2.64-.19,0-.31-.11-.31-.36s.25-.82.34-1.03l1.65-3.52c.46-1.09.77-1.8.77-2.51,0-.75-.52-1.3-1.38-1.3-1.19,0-2.49.69-3.52,1.82.04-.19.04-.36.04-.54,0-.84-.42-1.28-1.28-1.28-1.09,0-2.22.65-3.24,1.82l.67-1.63h-2.3l-1.95,4.4c-.92,2.07-2.41,4.12-3.24,4.12-.19,0-.31-.11-.31-.36,0-.4.44-1.38.61-1.78l2.58-5.84c.19-.44-1.05-.71-2.62-.71s-3.26.8-4.48,1.82c-.86.71-1.49,1.07-1.8,1.07-.17,0-.23-.08-.23-.19,0-.36.86-1.36.86-2.14,0-.36-.19-.59-.67-.59-.92,0-2.01.88-2.8,1.8l.67-1.61h-2.26l-1.95,4.4c-.92,2.07-2.45,4.23-3.29,4.23-.19,0-.31-.11-.31-.36,0-.4.42-1.36.65-1.86l2.58-5.86c.19-.44-1.05-.71-2.62-.71-2.32,0-4.58,1.57-5.78,3.18-1.32,1.74-2.22,3.58-2.24,5.09-.02,1.21.61,1.97,1.86,1.97,1.4,0,2.53-1.11,3.18-1.95-.04.17-.06.34-.08.5,0,.84.33,1.44,1.36,1.44.9,0,2.09-.75,3.06-1.95l-.77,1.78h2.45l2.41-5.46c.8-1.78,1.69-2.7,1.95-2.7.08,0,.13.04.13.11,0,.19-.38.69-.38,1.15s.25.82.92.82c.52,0,1.11-.25,1.63-.59-1.24,1.67-2.07,3.43-2.07,4.88-.02,1.21.61,1.97,1.86,1.97,1.32,0,2.55-1.26,3.22-2.09-.02.19-.04.38-.04.59,0,.82.46,1.51,1.4,1.51,1.05,0,1.88-.65,2.93-1.93l-.77,1.76h2.51l2.3-5.21c1-2.26,2.37-3.47,3.04-3.47.17-.02.31.11.33.27v.06c-.02.25-.1.5-.21.73l-3.31,7.64h2.57l2.34-5.32c1-2.28,2.11-3.39,2.95-3.39.25,0,.36.13.36.4-.02.29-.11.59-.23.84l-2.26,4.81c-.21.46-.33.96-.38,1.46,0,.73.4,1.38,1.53,1.38,1.47,0,2.57-1.11,3.83-2.76v.36c.11,1.32.84,2.47,2.78,2.47,2.3,0,4.17-1.59,5.3-4.12.42-.9.71-1.84.82-2.83.25.13.54.19.82.17.38,0,.75-.08,1.09-.27l-.4.86c-.46.96-.96,2.03-1.36,2.93-.25.52-.4,1.11-.44,1.69,0,.9.5,1.55,1.53,1.55s2.43-.96,3.43-2.32h.02c-.06.27-.11.56-.11.86,0,.75.23,1.47,1.28,1.47,1.21,0,2.15-.88,3.08-1.99l-.77,1.76h2.53l2.03-4.6c1.15-2.6,2.3-4.17,3.37-4.17.19,0,.33.13.36.31v.06c0,.44-.63,1.63-1.19,2.83-.52,1.09-.92,1.93-1.19,2.58-.25.54-.4,1.13-.44,1.74,0,.8.44,1.4,1.42,1.4,1.46,0,2.95-1.42,3.75-2.49-.19.52-.27,1.05-.29,1.59,0,1.47.88,2.2,2.11,2.2.82,0,1.61-.27,2.28-.75.96-.67,1.74-1.67,2.39-2.6l-.44-.42c-.61.86-1.28,1.67-1.97,2.18-.38.31-.82.48-1.3.5-.52,0-.86-.27-.86-.94s.31-1.57.8-2.78c.02-.02.71-1.57,1.36-3.06.54-1.26,1.09-2.47,1.19-2.72h1.65l.34-.75h-1.63l1.55-3.54h0ZM39.22,21.42c-.36,0-.61-.13-.61-.59.02-1.24,1.05-3.43,2.32-5.19.9-1.21,2.07-2.11,3.33-2.11l-1.59,3.56c-1.19,2.68-2.49,4.33-3.45,4.33h0ZM54.87,21.42c-.36,0-.61-.13-.63-.59.02-1.24,1.05-3.43,2.32-5.19.9-1.21,2.07-2.11,3.33-2.11l-1.59,3.56c-1.21,2.74-2.45,4.33-3.43,4.33h0ZM82.67,14.49c-.06,1.36-1.26,4.65-2.66,6.61-.56.8-1.05,1.02-1.47,1.02-.59,0-.75-.48-.67-1.19.13-1.24,1.15-4.12,2.57-6.11.65-.9,1.09-1.28,1.59-1.28s.65.42.63.94h0Z"></path>
        <polygon class="st2" points="121.73 12.88 124.04 7.55 121.31 7.55 119 12.88 113.2 12.88 112.24 15.11 118.04 15.11 115.73 20.43 118.46 20.43 120.76 15.11 126.56 15.11 127.53 12.88 121.73 12.88"></polygon>
      </g>
    </g>
  </g>
  <g id="Layer_3" class="st3">
    <g>
      <path class="st1" d="M30.72,30.85v-.13c.3-.04.35-.08.28-.26-.06-.19-.16-.44-.27-.73h-1.03c-.08.21-.15.41-.21.61-.11.3-.06.35.3.38v.13h-1.05v-.13c.3-.04.37-.07.54-.49l1-2.48.15-.04c.3.81.62,1.71.93,2.54.15.41.22.45.53.48v.13h-1.18,0ZM30.25,28.32h0c-.15.41-.31.82-.45,1.21h.89l-.42-1.21Z"></path>
      <path class="st1" d="M36.08,28.5c-.09-.3-.21-.63-.63-.63-.37,0-.54.27-.54.52,0,.35.23.51.61.7.38.19.83.41.83.94,0,.5-.43.89-1.07.89-.2,0-.35-.04-.47-.07-.12-.04-.19-.08-.24-.1-.04-.1-.1-.51-.13-.73l.14-.03c.08.29.29.77.79.77.36,0,.58-.22.58-.57s-.27-.52-.63-.7c-.31-.16-.8-.4-.8-.93,0-.45.37-.84.99-.84.22,0,.42.05.61.11.02.17.04.35.08.65l-.14.03h0Z"></path>
      <path class="st1" d="M39.57,30.85c-.37-.41-.76-.88-1.2-1.38-.11-.13-.18-.15-.26-.13v.9c0,.42.05.45.44.48v.13h-1.25v-.13c.37-.03.41-.06.41-.48v-1.85c0-.43-.04-.46-.42-.48v-.13h1.24v.13c-.37.03-.42.06-.42.48v.83c.11-.03.2-.09.34-.22.27-.25.59-.58.81-.84.14-.17.14-.22-.08-.24h-.11v-.15h1.16v.13c-.37.03-.48.08-.79.35-.18.17-.53.5-.85.83.37.45.89,1.03,1.13,1.29.26.27.35.31.59.34v.13h-.74Z"></path>
      <path class="st1" d="M43.88,27.91c-.33.04-.39.08-.57.37-.22.35-.38.62-.61,1.04-.06.12-.08.18-.08.3v.64c0,.4.04.43.48.46v.13h-1.37v-.13c.43-.03.47-.06.47-.46v-.63c0-.09-.02-.14-.1-.28-.17-.29-.34-.6-.61-1.04-.19-.32-.25-.37-.54-.4v-.13h1.15v.13c-.34.04-.33.1-.24.26.2.38.44.77.65,1.12.18-.31.44-.78.57-1.07.11-.24.1-.27-.28-.31v-.13h1.07v.13h0Z"></path>
      <path class="st1" d="M46.05,27.78c.61,0,1.07.12,1.37.4.24.23.4.57.4,1.02,0,.57-.22.99-.59,1.26-.36.27-.84.39-1.43.39h-1.14v-.13c.41-.03.45-.06.45-.46v-1.9c0-.41-.04-.43-.41-.45v-.14h1.35ZM45.52,30.24c0,.36.16.45.51.45.9,0,1.32-.66,1.32-1.42,0-.49-.18-.91-.57-1.13-.22-.14-.5-.19-.82-.19-.2,0-.33.02-.38.06s-.06.08-.06.27v1.97Z"></path>
      <path class="st1" d="M50.47,30.85v-.13c.3-.04.35-.08.28-.26s-.16-.44-.27-.73h-1.03c-.08.21-.15.41-.21.61-.11.3-.06.35.3.38v.13h-1.05v-.13c.3-.04.37-.07.54-.49l1-2.48.15-.04c.3.81.62,1.71.93,2.54.15.41.22.45.53.48v.13h-1.18,0ZM50,28.32h0c-.15.41-.31.82-.45,1.21h.89l-.42-1.21h0Z"></path>
      <path class="st1" d="M55.75,27.91c-.27.01-.39.08-.4.28-.02.14-.03.35-.03.8v1.91h-.15l-2.05-2.48h0v1.19c0,.43.01.66.03.8.02.24.13.3.46.32v.13h-1.14v-.13c.28-.01.4-.08.42-.31.01-.15.03-.37.03-.81v-1.04c0-.35,0-.36-.1-.48-.1-.12-.2-.16-.43-.18v-.13h.71l2.01,2.38h.01v-1.16c0-.43-.02-.65-.03-.79-.02-.21-.14-.27-.47-.29v-.13h1.14v.13h0Z"></path>
      <path class="st1" d="M59.7,30.07c-.07.22-.19.57-.27.72-.13.03-.54.13-.89.13-1.2,0-1.73-.81-1.73-1.57,0-.99.78-1.65,1.86-1.65.39,0,.72.1.85.13.04.27.07.46.1.71l-.14.03c-.13-.5-.41-.7-.94-.7-.81,0-1.24.67-1.24,1.39,0,.89.53,1.49,1.26,1.49.49,0,.75-.26.99-.73l.14.05h0Z"></path>
      <path class="st1" d="M62.91,30.11c-.03.16-.13.6-.17.75h-2.32v-.13c.44-.03.48-.07.48-.45v-1.88c0-.43-.04-.44-.41-.47v-.13h2.15c0,.12.02.44.04.68l-.14.02c-.04-.2-.09-.3-.15-.41-.07-.1-.2-.13-.54-.13h-.37c-.15,0-.16,0-.16.15v1.08h.45c.43,0,.46-.04.52-.35h.14v.91h-.14c-.06-.34-.1-.37-.52-.37h-.46v.89c0,.22.03.32.12.38.09.06.26.06.5.06.37,0,.5-.04.61-.16.08-.09.17-.26.24-.44l.14.02h0Z"></path>
      <path class="st1" d="M68.38,30.07c-.07.22-.19.57-.27.72-.13.03-.54.13-.89.13-1.2,0-1.73-.81-1.73-1.57,0-.99.78-1.65,1.86-1.65.39,0,.72.1.85.13.04.27.07.46.1.71l-.14.03c-.13-.5-.41-.7-.94-.7-.81,0-1.24.67-1.24,1.39,0,.89.53,1.49,1.26,1.49.49,0,.75-.26.99-.73l.14.05h0Z"></path>
      <path class="st1" d="M72.47,29.28c0,1.02-.73,1.65-1.61,1.65s-1.57-.67-1.57-1.58c0-.85.61-1.64,1.62-1.64.82,0,1.56.62,1.56,1.57ZM69.78,29.22c0,.89.5,1.54,1.18,1.54.54,0,1.02-.44,1.02-1.35,0-1-.53-1.53-1.16-1.53-.54,0-1.03.46-1.03,1.34h0Z"></path>
      <path class="st1" d="M76.34,30.89c-.06,0-.11,0-.17,0-.36-.02-.56-.12-.78-.43-.17-.23-.34-.53-.49-.76-.08-.13-.16-.19-.41-.19h-.15v.75c0,.4.04.43.43.46v.13h-1.27v-.13c.4-.03.44-.06.44-.46v-1.9c0-.4-.04-.42-.41-.45v-.13h1.2c.35,0,.59.04.77.16.19.12.32.34.32.62,0,.41-.26.66-.61.81.08.16.28.47.43.69.17.25.27.37.39.49.13.14.24.19.35.22l-.02.12h0ZM74.56,29.35c.25,0,.4-.04.53-.13.19-.14.27-.33.27-.59,0-.51-.34-.7-.71-.7-.14,0-.22.02-.26.05-.03.02-.05.08-.05.21v1.16h.23Z"></path>
      <path class="st1" d="M78.24,27.78c.34,0,.62.06.81.2.19.14.31.35.31.67,0,.61-.47.91-.94.97-.07,0-.16,0-.22,0l-.36-.09v.74c0,.4.04.43.48.45v.13h-1.31v-.13c.39-.03.42-.07.42-.46v-1.89c0-.42-.04-.43-.4-.46v-.13h1.19,0ZM77.85,29.37c.06.02.19.06.35.06.31,0,.7-.17.7-.77,0-.51-.33-.73-.73-.73-.13,0-.24.02-.27.06-.04.03-.05.09-.05.22v1.16h0Z"></path>
      <path class="st1" d="M83.47,29.28c0,1.02-.73,1.65-1.61,1.65s-1.57-.67-1.57-1.58c0-.85.61-1.64,1.62-1.64.82,0,1.56.62,1.56,1.57ZM80.78,29.22c0,.89.5,1.54,1.18,1.54.54,0,1.02-.44,1.02-1.35,0-1-.53-1.53-1.16-1.53-.54,0-1.03.46-1.03,1.34h0Z"></path>
      <path class="st1" d="M87.27,30.89c-.06,0-.11,0-.17,0-.36-.02-.56-.12-.78-.43-.17-.23-.34-.53-.49-.76-.08-.13-.16-.19-.41-.19h-.15v.75c0,.4.04.43.43.46v.13h-1.27v-.13c.4-.03.44-.06.44-.46v-1.9c0-.4-.04-.42-.41-.45v-.13h1.2c.35,0,.59.04.77.16.19.12.32.34.32.62,0,.41-.26.66-.61.81.08.16.28.47.43.69.17.25.27.37.39.49.13.14.24.19.35.22l-.02.12h0ZM85.49,29.35c.25,0,.4-.04.53-.13.19-.14.27-.33.27-.59,0-.51-.34-.7-.71-.7-.14,0-.22.02-.26.05-.03.02-.05.08-.05.21v1.16h.23Z"></path>
      <path class="st1" d="M89.8,30.85v-.13c.3-.04.35-.08.28-.26s-.16-.44-.27-.73h-1.03c-.08.21-.15.41-.21.61-.11.3-.06.35.3.38v.13h-1.05v-.13c.3-.04.37-.07.54-.49l1-2.48.15-.04c.3.81.62,1.71.93,2.54.15.41.22.45.53.48v.13h-1.18,0ZM89.33,28.32h0c-.15.41-.31.82-.45,1.21h.89l-.42-1.21Z"></path>
      <path class="st1" d="M93.93,28.51c-.05-.23-.1-.35-.15-.42-.08-.11-.16-.15-.52-.15h-.34v2.33c0,.37.04.42.5.45v.13h-1.38v-.13c.44-.03.48-.08.48-.45v-2.33h-.3c-.4,0-.5.04-.56.15-.06.08-.1.21-.15.42h-.14c.02-.28.05-.59.06-.85h.1c.07.11.13.12.27.12h1.91c.13,0,.17-.03.25-.12h.1c0,.22.02.56.05.84h-.14s0,.01,0,.01Z"></path>
      <path class="st1" d="M95.01,30.85v-.13c.4-.03.43-.06.43-.46v-1.89c0-.4-.04-.43-.43-.46v-.13h1.28v.13c-.4.03-.43.06-.43.46v1.89c0,.41.04.43.43.46v.13h-1.28Z"></path>
      <path class="st1" d="M100.24,29.28c0,1.02-.73,1.65-1.61,1.65s-1.57-.67-1.57-1.58c0-.85.61-1.64,1.62-1.64.82,0,1.56.62,1.56,1.57ZM97.56,29.22c0,.89.5,1.54,1.18,1.54.54,0,1.02-.44,1.02-1.35,0-1-.53-1.53-1.16-1.53-.54,0-1.03.46-1.03,1.34h0Z"></path>
      <path class="st1" d="M104.52,27.91c-.27.01-.39.08-.4.28-.02.14-.03.35-.03.8v1.91h-.15l-2.05-2.48h0v1.19c0,.43.01.66.03.8.02.24.13.3.46.32v.13h-1.14v-.13c.28-.01.4-.08.42-.31.01-.15.03-.37.03-.81v-1.04c0-.35,0-.36-.1-.48-.1-.12-.2-.16-.43-.18v-.13h.71l2.01,2.38h.01v-1.16c0-.43-.02-.65-.03-.79-.02-.21-.14-.27-.47-.29v-.13h1.14v.13h0Z"></path>
      <rect class="st1" x="28.97" y="25.98" width="75.87" height=".31"></rect>
      <g>
        <path class="st1" d="M42.63,7.77c0-4.52-4.79-6.7-10.49-6.7-6.09,0-11.68,2.7-13.73,6.88-.56,1.11-.86,2.34-.86,3.6-.02,1.09.27,2.16.86,3.06.88,1.3,2.45,2.11,4.75,2.11,2.83,0,5.07-1.55,5.07-4.25,0,0,.04-.75-.84-.75-.71,0-.9.5-.88.75.11,2.11-1.15,3.81-3.39,3.81-2.51,0-3.56-2.13-3.56-4.42,0-4.67,3.52-7.77,7.18-9.1,1.72-.65,3.52-.96,5.36-.94,4.14,0,7.53,1.59,7.53,5.86,0,3.56-2.99,6.59-6.57,6.86l.15-.48c.73-2.62,1.63-5.48,3.1-7.6.08-.13.23-.34.4-.54l-.21-.25c-.31.19-.61.4-.9.63-6.86,5.36-7.07,20.43-16.22,20.43-.31,0-.63-.02-.94-.06-1.91-.31-2.91-1.59-2.91-3.37,0-.36.13-.84.13-1.11.02-.5-.4-.94-.9-.94h-.1c-.82,0-1.15.65-1.17,1.57-.06,2.66,1.91,4.21,4.94,4.5.33.02.67.04,1.02.04,7.14,0,11.51-5.4,13.37-11.95.94-.1,1.88-.31,2.78-.59,3.31-.92,7.03-3.14,7.03-7.05h0Z"></path>
        <path class="st1" d="M110.61,9.34h-2.51l-.56,1.32-.98,2.22h-1.17l-.36.75h1.21l-1.47,3.24c-1.05,2.28-2.68,4.52-3.62,4.52-.21,0-.33-.08-.33-.29s.06-.4.29-.98c.29-.69.78-1.7,1.13-2.43.52-1.07,1.36-2.72,1.36-3.54s-.52-1.47-1.55-1.47c-1.15,0-2.2.69-3.16,1.69l.63-1.51h-2.37l-1.93,4.4c-.78,1.55-2.34,4.12-3.33,4.12-.21,0-.29-.13-.29-.33.02-.19.06-.36.15-.54.08-.19,1.24-2.89,1.24-2.89l2.09-4.79h-2.55l-2.03,4.67c-.63,1.44-2.22,3.89-3.24,3.89-.17.02-.33-.11-.35-.29v-.08c0-.25.19-.71.33-1.05l1.07-2.34,2.2-4.79h-2.53l-.5,1.09c-.38.73-1,1.59-2.01,1.59-.48,0-.71-.19-.82-.38-.15-1.61-1.17-2.47-2.68-2.47-2.09,0-3.58,1.24-4.56,2.74-.65,1.05-1.15,2.15-1.51,3.33-.9,1.49-1.84,2.64-2.6,2.64-.19,0-.31-.11-.31-.36s.25-.82.34-1.03l1.65-3.52c.46-1.09.77-1.8.77-2.51,0-.75-.52-1.3-1.38-1.3-1.19,0-2.49.69-3.52,1.82.04-.19.04-.36.04-.54,0-.84-.42-1.28-1.28-1.28-1.09,0-2.22.65-3.24,1.82l.67-1.63h-2.3l-1.95,4.4c-.92,2.07-2.41,4.12-3.24,4.12-.19,0-.31-.11-.31-.36,0-.4.44-1.38.61-1.78l2.58-5.84c.19-.44-1.05-.71-2.62-.71s-3.26.8-4.48,1.82c-.86.71-1.49,1.07-1.8,1.07-.17,0-.23-.08-.23-.19,0-.36.86-1.36.86-2.14,0-.36-.19-.59-.67-.59-.92,0-2.01.88-2.8,1.8l.67-1.61h-2.26l-1.95,4.4c-.92,2.07-2.45,4.23-3.29,4.23-.19,0-.31-.11-.31-.36,0-.4.42-1.36.65-1.86l2.58-5.86c.19-.44-1.05-.71-2.62-.71-2.32,0-4.58,1.57-5.78,3.18-1.32,1.74-2.22,3.58-2.24,5.09-.02,1.21.61,1.97,1.86,1.97,1.4,0,2.53-1.11,3.18-1.95-.04.17-.06.34-.08.5,0,.84.33,1.44,1.36,1.44.9,0,2.09-.75,3.06-1.95l-.77,1.78h2.45l2.41-5.46c.8-1.78,1.69-2.7,1.95-2.7.08,0,.13.04.13.11,0,.19-.38.69-.38,1.15s.25.82.92.82c.52,0,1.11-.25,1.63-.59-1.24,1.67-2.07,3.43-2.07,4.88-.02,1.21.61,1.97,1.86,1.97,1.32,0,2.55-1.26,3.22-2.09-.02.19-.04.38-.04.59,0,.82.46,1.51,1.4,1.51,1.05,0,1.88-.65,2.93-1.93l-.77,1.76h2.51l2.3-5.21c1-2.26,2.37-3.47,3.04-3.47.17-.02.31.11.33.27v.06c-.02.25-.1.5-.21.73l-3.31,7.64h2.57l2.34-5.32c1-2.28,2.11-3.39,2.95-3.39.25,0,.36.13.36.4-.02.29-.11.59-.23.84l-2.26,4.81c-.21.46-.33.96-.38,1.46,0,.73.4,1.38,1.53,1.38,1.47,0,2.57-1.11,3.83-2.76v.36c.11,1.32.84,2.47,2.78,2.47,2.3,0,4.17-1.59,5.3-4.12.42-.9.71-1.84.82-2.83.25.13.54.19.82.17.38,0,.75-.08,1.09-.27l-.4.86c-.46.96-.96,2.03-1.36,2.93-.25.52-.4,1.11-.44,1.69,0,.9.5,1.55,1.53,1.55s2.43-.96,3.43-2.32h.02c-.06.27-.11.56-.11.86,0,.75.23,1.47,1.28,1.47,1.21,0,2.15-.88,3.08-1.99l-.77,1.76h2.53l2.03-4.6c1.15-2.6,2.3-4.17,3.37-4.17.19,0,.33.13.36.31v.06c0,.44-.63,1.63-1.19,2.83-.52,1.09-.92,1.93-1.19,2.58-.25.54-.4,1.13-.44,1.74,0,.8.44,1.4,1.42,1.4,1.46,0,2.95-1.42,3.75-2.49-.19.52-.27,1.05-.29,1.59,0,1.47.88,2.2,2.11,2.2.82,0,1.61-.27,2.28-.75.96-.67,1.74-1.67,2.39-2.6l-.44-.42c-.61.86-1.28,1.67-1.97,2.18-.38.31-.82.48-1.3.5-.52,0-.86-.27-.86-.94s.31-1.57.8-2.78c.02-.02.71-1.57,1.36-3.06.54-1.26,1.09-2.47,1.19-2.72h1.65l.34-.75h-1.63l1.55-3.54h0ZM39.22,21.42c-.36,0-.61-.13-.61-.59.02-1.24,1.05-3.43,2.32-5.19.9-1.21,2.07-2.11,3.33-2.11l-1.59,3.56c-1.19,2.68-2.49,4.33-3.45,4.33h0ZM54.87,21.42c-.36,0-.61-.13-.63-.59.02-1.24,1.05-3.43,2.32-5.19.9-1.21,2.07-2.11,3.33-2.11l-1.59,3.56c-1.21,2.74-2.45,4.33-3.43,4.33h0ZM82.67,14.49c-.06,1.36-1.26,4.65-2.66,6.61-.56.8-1.05,1.02-1.47,1.02-.59,0-.75-.48-.67-1.19.13-1.24,1.15-4.12,2.57-6.11.65-.9,1.09-1.28,1.59-1.28s.65.42.63.94h0Z"></path>
        <polygon class="st1" points="121.73 12.88 124.04 7.55 121.31 7.55 119 12.88 113.2 12.88 112.24 15.11 118.04 15.11 115.73 20.43 118.46 20.43 120.76 15.11 126.56 15.11 127.53 12.88 121.73 12.88"></polygon>
      </g>
    </g>
  </g>
</svg>