<?xml version="1.0" encoding="UTF-8"?>
<svg xmlns="http://www.w3.org/2000/svg" xmlns:xlink="http://www.w3.org/1999/xlink" width="64px" height="64px" viewBox="0 0 64 64" version="1.1">
<g id="surface1">
<path style=" stroke:none;fill-rule:nonzero;fill:rgb(0%,0%,0%);fill-opacity:1;" d="M 12 0 L 52 0 C 58.601562 0 64 5.398438 64 12 L 64 52 C 64 58.601562 58.601562 64 52 64 L 12 64 C 5.398438 64 0 58.601562 0 52 L 0 12 C 0 5.398438 5.398438 0 12 0 Z M 12 0 "/>
<path style=" stroke:none;fill-rule:nonzero;fill:rgb(100%,94.901961%,0%);fill-opacity:1;" d="M 18.199219 32 C 18.199219 33 17.300781 33.898438 16.300781 33.898438 C 15.300781 33.898438 14.398438 33.101562 14.398438 32 C 14.398438 30.898438 15.300781 30.101562 16.300781 30.101562 C 17.300781 30.101562 18.199219 30.898438 18.199219 32 Z M 44.5 35.800781 C 42.800781 43.699219 35.699219 49.601562 27.300781 49.601562 C 17.601562 49.601562 9.699219 41.699219 9.699219 32 C 9.699219 22.300781 17.601562 14.398438 27.300781 14.398438 C 35.699219 14.398438 42.699219 20.300781 44.5 28.101562 C 44 27.898438 43.601562 27.800781 43 27.800781 C 40.800781 27.800781 38.898438 29.601562 38.898438 31.898438 C 38.898438 34.101562 40.699219 36 43 36 C 43.601562 36 44.101562 35.898438 44.5 35.800781 Z M 20.398438 32 C 20.398438 29.699219 18.699219 27.898438 16.601562 27.898438 C 15.601562 27.898438 14.800781 28.199219 14.199219 28.800781 L 13.898438 28 L 12.101562 28.699219 L 12.101562 37.800781 L 14.398438 37.800781 L 14.398438 35.101562 C 15 35.601562 15.800781 35.898438 16.601562 35.898438 C 17.601562 35.898438 18.601562 35.5 19.300781 34.699219 C 20 34.101562 20.398438 33.101562 20.398438 32 Z M 23.601562 26 L 21.300781 26.898438 L 21.300781 35.898438 L 23.601562 35.898438 Z M 32 28.101562 L 29.699219 29 L 29.699219 32.398438 C 29.699219 33.199219 29.101562 33.800781 28.300781 33.800781 C 27.5 33.800781 26.898438 33.199219 26.898438 32.398438 L 26.898438 28.101562 L 24.601562 29 L 24.601562 32.300781 C 24.601562 34.300781 26.300781 36 28.300781 36 C 30.300781 36 32 34.300781 32 32.300781 C 32 32.300781 32 28.101562 32 28.101562 Z M 38.398438 28.101562 L 36.5 28.101562 L 36.5 26 L 34.199219 26.898438 L 34.199219 28 L 32.800781 28 L 32.800781 30.101562 L 34.199219 30.101562 L 34.199219 32.800781 C 34.199219 33.699219 34.5 34.5 35 35 C 35.5 35.5 36.300781 35.800781 37.199219 35.800781 L 38.300781 35.800781 L 38.300781 33.699219 L 37.5 33.699219 C 36.699219 33.699219 36.398438 33.398438 36.398438 32.601562 L 36.398438 30.101562 L 38.300781 30.101562 Z M 41.199219 32 C 41.199219 33 42 33.898438 43.101562 33.898438 C 44.101562 33.898438 45 33.101562 45 32 C 45 31 44.199219 30.101562 43.101562 30.101562 C 42 30.101562 41.199219 30.898438 41.199219 32 Z M 55.300781 24.800781 L 53.800781 28.800781 L 52.300781 24.800781 L 49.199219 24.800781 L 49.199219 23.199219 L 47.601562 23.800781 L 47.601562 24.800781 L 46.5 24.800781 L 46.5 26.199219 L 47.601562 26.199219 L 47.601562 28.800781 C 47.601562 30.199219 48.398438 31 49.898438 31 L 51 31 L 51 29.5 L 50.101562 29.5 C 49.5 29.5 49.199219 29.199219 49.199219 28.601562 L 49.199219 26.101562 L 51.199219 26.101562 L 53.199219 30.898438 L 54.601562 30.898438 L 57.199219 24.699219 Z M 55.300781 24.800781 "/>
</g>
</svg>
