<?xml version="1.0" encoding="UTF-8"?>
<svg id="Layer_1" xmlns="http://www.w3.org/2000/svg" xmlns:xlink="http://www.w3.org/1999/xlink" version="1.1" width='64' height='64' viewBox="0 0 64 64">
  <!-- Generator: Adobe Illustrator 29.5.1, SVG Export Plug-In . SVG Version: 2.1.0 Build 141)  -->
  <defs>
    <style>
      .st0 {
        fill: none;
      }

      .st1 {
        fill: #0064ff;
      }

      .st2 {
        fill: #fff;
      }

      .st3 {
        display: none;
      }

      .st4 {
        clip-path: url(#clippath);
      }
    </style>
    <clipPath id="clippath">
      <rect class="st0" x="5.78" y="42" width="52.44" height="12"/>
    </clipPath>
  </defs>
  <rect class="st1" width="64" height="64" rx="12" ry="12"/>
  <path class="st2" d="M28.16,32.85c.07.03.11.11.07.18l-.56,1.31s-.98-.22-2.67,2.52c-.06.1-.54-.21-.27-.66l1.08-1.81c.06-.11-.02-.24-.14-.24l1.18-1.95c.15-.25.93-1.6,1.39-2.08l.97-.98c.05-.06.13.03.1.1l-1.11,2.33c-.48.9-.19,1.22-.02,1.29ZM46.98,32.45l-.96-.7.37-1.14-.96.7-.96-.7.37,1.14-.97.7h1.19l.37,1.14.37-1.14h1.19ZM43.86,22.68l.97.7-.37,1.14.97-.7.96.7-.37-1.14.96-.7h-1.19l-.37-1.14-.37,1.14h-1.19ZM43.61,19.84l1.13.37-.7-.97.7-.97-1.13.37-.7-.97v1.2l-1.13.37,1.13.37v1.2l.7-.97ZM40.66,16.62h1.19l-.96-.7.37-1.14-.96.7-.96-.7.37,1.14-.96.7h1.19l.37,1.14.37-1.14ZM45.48,27.57l-.7.97,1.13-.37.7.97v-1.2l1.13-.37-1.13-.37v-1.2l-.7.97-1.13-.37.7.97ZM38,14.1l-1.13-.37v-1.2l-.7.97-1.13-.37.7.97-.7.97,1.13-.37.7.97v-1.2l1.13-.37ZM33.56,12.9h-1.19l-.37-1.14-.37,1.14h-1.19l.97.7-.37,1.14.96-.7.96.7-.37-1.14.97-.7ZM28.97,15.07l-.7-.97.7-.97-1.13.37-.7-.97v1.2l-1.13.37,1.13.37v1.2l.7-.97,1.13.37ZM25.27,16.62l-.96-.7.37-1.14-.97.7-.96-.7.37,1.14-.96.7h1.19l.37,1.14.37-1.14h1.19ZM21.09,19.61l1.13-.37-1.13-.37v-1.2l-.7.97-1.13-.37.7.97-.7.97,1.13-.37.7.97v-1.2ZM20.14,22.68h-1.19l-.37-1.14-.37,1.14h-1.19l.97.7-.37,1.14.97-.7.96.7-.37-1.14.96-.7ZM20.14,32.45l-.97-.7.37-1.14-.96.7-.97-.7.37,1.14-.97.7h1.19l.37,1.14.37-1.14h1.19ZM18.52,27.57l.7-.97-1.13.37-.7-.97v1.2l-1.13.37,1.13.37v1.2l.7-.97,1.13.37-.7-.97ZM32,10c9.67,0,17.5,7.87,17.5,17.57,0,3.9-1.27,7.5-3.41,10.42-.62-.29-1.06-.68-1.41-1.14-2.49-3.1-4.27-5.1-4.67-5.54-.87-.95-1.27-1.01-1.94-1.34-.14-.07-.19-.12-.27-.25l-3.38-5.97c-.25-.49-.61-.91-1.06-1.23l-.85-.6c-.17-.12-.41-.12-.58,0l-.7.51c-.06.04-.11.09-.15.15l-1.6,2.23-.78.61-5.36,6.82-.49.21c-.1.04-.19.11-.26.2l-3.26,4.18c-.29.36-.7.84-1.43,1.16-2.15-2.92-3.42-6.52-3.42-10.43,0-9.7,7.84-17.57,17.5-17.57ZM38.34,37.72c.08-.12.22-.46-.04-1.08l-.77-2.09c-.11-.27.12-.43.28-.25,0,0,1.46,1.69,1.84,2.4l.72,1.2c.62.04,2.33.09,3.98.09-.16-.16-.32-.34-.46-.53-2.81-3.5-4.6-5.45-4.62-5.47-.57-.62-.83-.74-1.27-.94-.06-.03-.13-.06-.2-.09v.53c0,.07-.08.11-.12.03l-4.14-7.3v-.02c-.18-.34-.44-.64-.75-.86l-.4-.28-1.97,4.57c.31,0,.51.32.39.6l-1.82,4.24h1.67c.65,0,1.29.13,1.89.37l.44.18s-1.33,2.75-1.33,4.2c0,.26.04.53.11.78h3.07l-.14-.87s1.85.43,3.65.6Z"/>
  <g class="st3">
    <g class="st4">
      <g>
        <path class="st2" d="M19.12,45.06c0-2.06-2.19-3.06-4.8-3.06-2.79,0-5.34,1.23-6.28,3.14-.26.51-.39,1.07-.39,1.64,0,.5.12.98.39,1.4.4.59,1.12.97,2.17.97,1.29,0,2.32-.71,2.32-1.94,0,0,.02-.34-.38-.34-.33,0-.41.23-.4.34.05.97-.53,1.74-1.55,1.74-1.15,0-1.63-.97-1.63-2.02,0-2.13,1.61-3.54,3.28-4.16.79-.3,1.61-.44,2.45-.43,1.9,0,3.45.73,3.45,2.68,0,1.62-1.37,3.01-3.01,3.13l.07-.22c.34-1.19.75-2.5,1.42-3.47.04-.06.11-.15.18-.25l-.1-.11c-.14.09-.28.18-.41.29-3.14,2.45-3.24,9.33-7.42,9.33-.14,0-.29,0-.43-.03-.87-.14-1.33-.73-1.33-1.54,0-.16.06-.38.06-.51,0-.23-.18-.43-.41-.43h-.05c-.37,0-.53.3-.54.72-.03,1.21.87,1.92,2.26,2.05.15,0,.31.02.47.02,3.26,0,5.27-2.46,6.12-5.46.43-.05.86-.14,1.27-.27,1.51-.42,3.22-1.43,3.22-3.22Z"/>
        <path class="st2" d="M50.22,45.77h-1.15l-.26.6-.45,1.01h-.54l-.16.34h.56l-.67,1.48c-.48,1.04-1.23,2.06-1.66,2.06-.1,0-.15-.04-.15-.13s.03-.18.13-.45c.13-.32.35-.77.52-1.11.24-.49.62-1.24.62-1.61s-.24-.67-.71-.67c-.53,0-1.01.32-1.45.77l.29-.69h-1.08l-.88,2.01c-.35.71-1.07,1.88-1.52,1.88-.1,0-.13-.06-.13-.15,0-.09.03-.16.07-.25.04-.09.56-1.32.56-1.32l.96-2.19h-1.17l-.93,2.13c-.29.66-1.02,1.78-1.48,1.78-.08,0-.15-.05-.16-.13v-.04c0-.11.09-.32.15-.48l.49-1.07,1.01-2.19h-1.16l-.23.5c-.17.33-.46.73-.92.73-.22,0-.33-.09-.37-.17-.07-.74-.54-1.13-1.23-1.13-.96,0-1.64.56-2.09,1.25-.3.48-.53.98-.69,1.52-.41.68-.84,1.2-1.19,1.2-.09,0-.14-.05-.14-.16s.12-.37.15-.47l.76-1.6c.21-.5.35-.82.35-1.15,0-.34-.24-.59-.63-.59-.55,0-1.14.32-1.61.83.02-.09.02-.16.02-.25,0-.38-.19-.58-.58-.58-.5,0-1.01.3-1.48.83l.31-.75h-1.05l-.89,2.01c-.42.95-1.1,1.88-1.48,1.88-.09,0-.14-.05-.14-.16,0-.18.2-.63.28-.81l1.18-2.67c.09-.2-.48-.33-1.2-.33s-1.49.36-2.05.83c-.39.32-.68.49-.82.49-.08,0-.11-.04-.11-.09,0-.16.39-.62.39-.97,0-.16-.09-.27-.31-.27-.42,0-.92.4-1.28.82l.31-.74h-1.03l-.89,2.01c-.42.95-1.12,1.93-1.5,1.93-.09,0-.14-.05-.14-.16,0-.18.19-.62.3-.85l1.18-2.68c.09-.2-.48-.33-1.2-.33-1.06,0-2.1.72-2.64,1.45-.6.79-1.01,1.63-1.02,2.32,0,.55.28.9.85.9.64,0,1.16-.51,1.46-.89-.02.08-.03.15-.04.23,0,.38.15.66.62.66.41,0,.96-.34,1.4-.89l-.35.81h1.12l1.1-2.49c.36-.81.78-1.23.89-1.23.04,0,.06.02.06.05,0,.09-.17.32-.17.53s.11.37.42.37c.24,0,.51-.11.75-.27-.56.76-.95,1.57-.95,2.23,0,.55.28.9.85.9.6,0,1.17-.57,1.47-.96,0,.09-.02.17-.02.27,0,.37.21.69.64.69.48,0,.86-.3,1.34-.88l-.35.8h1.15l1.05-2.38c.46-1.03,1.08-1.59,1.39-1.59.08,0,.14.05.15.12v.03c0,.11-.05.23-.1.33l-1.51,3.49h1.18l1.07-2.43c.46-1.04.97-1.55,1.35-1.55.12,0,.16.06.16.18,0,.13-.05.27-.11.38l-1.03,2.2c-.1.21-.15.44-.17.67,0,.33.18.63.7.63.67,0,1.18-.51,1.75-1.26v.16c.05.6.38,1.13,1.27,1.13,1.05,0,1.91-.73,2.42-1.88.19-.41.33-.84.37-1.29.12.06.25.09.37.08.17,0,.34-.04.5-.12l-.18.39c-.21.44-.44.93-.62,1.34-.11.24-.18.51-.2.77,0,.41.23.71.7.71s1.11-.44,1.57-1.06h0c-.03.12-.05.26-.05.39,0,.34.11.67.58.67.56,0,.99-.4,1.41-.91l-.35.8h1.16l.93-2.1c.53-1.18,1.05-1.9,1.54-1.9.09,0,.15.06.16.14v.03c0,.2-.29.75-.55,1.29-.24.5-.42.88-.55,1.18-.12.25-.18.52-.2.79,0,.36.2.64.65.64.67,0,1.35-.65,1.71-1.14-.09.24-.12.48-.13.73,0,.67.4,1,.97,1,.37,0,.74-.12,1.04-.34.44-.31.79-.76,1.09-1.18l-.2-.19c-.28.39-.58.76-.9.99-.17.14-.37.22-.59.23-.24,0-.39-.12-.39-.43s.14-.72.36-1.27c0,0,.33-.72.62-1.4.25-.57.5-1.13.55-1.24h.76l.15-.34h-.75l.71-1.62ZM17.56,51.29c-.16,0-.28-.06-.28-.27,0-.56.48-1.57,1.06-2.37.41-.55.95-.97,1.52-.97l-.73,1.62c-.55,1.22-1.14,1.98-1.58,1.98ZM24.72,51.29c-.16,0-.28-.06-.29-.27,0-.56.48-1.57,1.06-2.37.41-.55.95-.97,1.52-.97l-.73,1.62c-.56,1.25-1.12,1.98-1.57,1.98ZM37.43,48.12c-.03.62-.57,2.12-1.22,3.02-.26.36-.48.47-.67.47-.27,0-.34-.22-.31-.54.06-.56.53-1.88,1.18-2.79.3-.41.5-.58.73-.58s.3.19.29.43Z"/>
        <path class="st2" d="M55.3,47.39l1.05-2.43h-1.25l-1.05,2.43h-2.65l-.44,1.02h2.65l-1.05,2.43h1.25l1.05-2.43h2.65l.44-1.02h-2.65Z"/>
      </g>
    </g>
  </g>
  <g id="Layer_11" data-name="Layer_1">
    <g>
      <path class="st2" d="M13.67,55.52v-.06c.14-.02.16-.04.13-.12-.03-.09-.07-.2-.12-.33h-.47c-.04.1-.07.19-.1.28-.05.14-.03.16.14.17v.06h-.48v-.06c.14-.02.17-.03.25-.22l.46-1.14.07-.02c.14.37.28.78.43,1.16.07.19.1.21.24.22v.06h-.54,0ZM13.46,54.36h0c-.07.19-.14.38-.21.55h.41l-.19-.55h0Z"/>
      <path class="st2" d="M16.13,54.44c-.04-.14-.1-.29-.29-.29-.17,0-.25.12-.25.24,0,.16.11.23.28.32s.38.19.38.43c0,.23-.2.41-.49.41-.09,0-.16-.02-.22-.03-.05-.02-.09-.04-.11-.05-.02-.05-.05-.23-.06-.33h.06c.04.12.13.34.36.34.16,0,.27-.1.27-.26s-.12-.24-.29-.32c-.14-.07-.37-.18-.37-.43,0-.21.17-.38.45-.38.1,0,.19.02.28.05,0,.08.02.16.04.3h-.06s0,0,0,0Z"/>
      <path class="st2" d="M17.72,55.52c-.17-.19-.35-.4-.55-.63-.05-.06-.08-.07-.12-.06v.41c0,.19.02.21.2.22v.06h-.57v-.06c.17-.01.19-.03.19-.22v-.85c0-.2-.02-.21-.19-.22v-.06h.57v.06c-.17.01-.19.03-.19.22v.38c.05-.01.09-.04.16-.1.12-.11.27-.27.37-.38.06-.08.06-.1-.04-.11h-.05v-.07h.53v.06c-.17.01-.22.04-.36.16-.08.08-.24.23-.39.38.17.21.41.47.52.59.12.12.16.14.27.16v.06h-.34Z"/>
      <path class="st2" d="M19.7,54.17c-.15.02-.18.04-.26.17-.1.16-.17.28-.28.48-.03.05-.04.08-.04.14v.29c0,.18.02.2.22.21v.06h-.63v-.06c.2-.01.22-.03.22-.21v-.29s0-.06-.05-.13c-.08-.13-.16-.27-.28-.48-.09-.15-.11-.17-.25-.18v-.06h.53v.06c-.16.02-.15.05-.11.12.09.17.2.35.3.51.08-.14.2-.36.26-.49.05-.11.05-.12-.13-.14v-.06h.49v.06h0Z"/>
      <path class="st2" d="M20.69,54.11c.28,0,.49.05.63.18.11.11.18.26.18.47,0,.26-.1.45-.27.58-.16.12-.38.18-.66.18h-.52v-.06c.19-.01.21-.03.21-.21v-.87c0-.19-.02-.2-.19-.21v-.06h.62ZM20.45,55.24c0,.16.07.21.23.21.41,0,.6-.3.6-.65,0-.22-.08-.42-.26-.52-.1-.06-.23-.09-.38-.09-.09,0-.15,0-.17.03s-.03.04-.03.12v.9h0Z"/>
      <path class="st2" d="M22.72,55.52v-.06c.14-.02.16-.04.13-.12s-.07-.2-.12-.33h-.47c-.04.1-.07.19-.1.28-.05.14-.03.16.14.17v.06h-.48v-.06c.14-.02.17-.03.25-.22l.46-1.14.07-.02c.14.37.28.78.43,1.16.07.19.1.21.24.22v.06h-.54,0ZM22.5,54.36h0c-.07.19-.14.38-.21.55h.41l-.19-.55h0Z"/>
      <path class="st2" d="M25.14,54.17c-.12,0-.18.04-.18.13,0,.06-.01.16-.01.37v.87h-.07l-.94-1.14h0v.55c0,.2,0,.3.01.37,0,.11.06.14.21.15v.06h-.52v-.06c.13,0,.18-.04.19-.14,0-.07.01-.17.01-.37v-.48c0-.16,0-.16-.05-.22-.05-.05-.09-.07-.2-.08v-.06h.33l.92,1.09h0v-.53c0-.2,0-.3-.01-.36,0-.1-.06-.12-.22-.13v-.06h.52v.06h0Z"/>
      <path class="st2" d="M26.95,55.16c-.03.1-.09.26-.12.33-.06.01-.25.06-.41.06-.55,0-.79-.37-.79-.72,0-.45.36-.76.85-.76.18,0,.33.05.39.06.02.12.03.21.05.33h-.06c-.06-.22-.19-.31-.43-.31-.37,0-.57.31-.57.64,0,.41.24.68.58.68.22,0,.34-.12.45-.33l.06.02h0Z"/>
      <path class="st2" d="M28.42,55.18c-.01.07-.06.27-.08.34h-1.06v-.06c.2-.01.22-.03.22-.21v-.86c0-.2-.02-.2-.19-.22v-.06h.98c0,.05,0,.2.02.31h-.06c-.02-.08-.04-.13-.07-.18-.03-.05-.09-.06-.25-.06h-.17c-.07,0-.07,0-.07.07v.49h.21c.2,0,.21-.02.24-.16h.06v.42h-.06c-.03-.16-.05-.17-.24-.17h-.21v.41c0,.1.01.15.05.17s.12.03.23.03c.17,0,.23-.02.28-.07.04-.04.08-.12.11-.2h.06s0,0,0,0Z"/>
      <path class="st2" d="M30.92,55.16c-.03.1-.09.26-.12.33-.06.01-.25.06-.41.06-.55,0-.79-.37-.79-.72,0-.45.36-.76.85-.76.18,0,.33.05.39.06.02.12.03.21.05.33h-.06c-.06-.22-.19-.31-.43-.31-.37,0-.57.31-.57.64,0,.41.24.68.58.68.22,0,.34-.12.45-.33l.06.02h0Z"/>
      <path class="st2" d="M32.8,54.8c0,.47-.33.76-.74.76s-.72-.31-.72-.72c0-.39.28-.75.74-.75.38,0,.71.28.71.72ZM31.56,54.77c0,.41.23.71.54.71.25,0,.47-.2.47-.62,0-.46-.24-.7-.53-.7-.25,0-.47.21-.47.61h0Z"/>
      <path class="st2" d="M34.57,55.54h-.08c-.16,0-.26-.05-.36-.2-.08-.11-.16-.24-.22-.35-.04-.06-.07-.09-.19-.09h-.07v.34c0,.18.02.2.2.21v.06h-.58v-.06c.18-.01.2-.03.2-.21v-.87c0-.18-.02-.19-.19-.21v-.06h.55c.16,0,.27.02.35.07.09.05.15.16.15.28,0,.19-.12.3-.28.37.04.07.13.22.2.32.08.11.12.17.18.22.06.06.11.09.16.1v.05h-.02ZM33.75,54.83c.11,0,.18-.02.24-.06.09-.06.12-.15.12-.27,0-.23-.16-.32-.33-.32-.06,0-.1,0-.12.02-.01,0-.02.04-.02.1v.53h.11,0Z"/>
      <path class="st2" d="M35.44,54.11c.16,0,.28.03.37.09.09.06.14.16.14.31,0,.28-.22.42-.43.44h-.1l-.16-.04v.34c0,.18.02.2.22.21v.06h-.6v-.06c.18-.01.19-.03.19-.21v-.87c0-.19-.02-.2-.18-.21v-.06h.55ZM35.26,54.84s.09.03.16.03c.14,0,.32-.08.32-.35,0-.23-.15-.33-.33-.33-.06,0-.11,0-.12.03-.02.01-.02.04-.02.1v.53h0Z"/>
      <path class="st2" d="M37.84,54.8c0,.47-.33.76-.74.76s-.72-.31-.72-.72c0-.39.28-.75.74-.75.38,0,.71.28.71.72ZM36.6,54.77c0,.41.23.71.54.71.25,0,.47-.2.47-.62,0-.46-.24-.7-.53-.7-.25,0-.47.21-.47.61h0Z"/>
      <path class="st2" d="M39.58,55.54h-.08c-.16,0-.26-.05-.36-.2-.08-.11-.16-.24-.22-.35-.04-.06-.07-.09-.19-.09h-.07v.34c0,.18.02.2.2.21v.06h-.58v-.06c.18-.01.2-.03.2-.21v-.87c0-.18-.02-.19-.19-.21v-.06h.55c.16,0,.27.02.35.07.09.05.15.16.15.28,0,.19-.12.3-.28.37.04.07.13.22.2.32.08.11.12.17.18.22.06.06.11.09.16.1v.05h-.02ZM38.76,54.83c.11,0,.18-.02.24-.06.09-.06.12-.15.12-.27,0-.23-.16-.32-.33-.32-.06,0-.1,0-.12.02-.01,0-.02.04-.02.1v.53h.11,0Z"/>
      <path class="st2" d="M40.73,55.52v-.06c.14-.02.16-.04.13-.12s-.07-.2-.12-.33h-.47c-.04.1-.07.19-.1.28-.05.14-.03.16.14.17v.06h-.48v-.06c.14-.02.17-.03.25-.22l.46-1.14.07-.02c.14.37.28.78.43,1.16.07.19.1.21.24.22v.06h-.54,0ZM40.52,54.36h0c-.07.19-.14.38-.21.55h.41l-.19-.55h0Z"/>
      <path class="st2" d="M42.63,54.45c-.02-.11-.05-.16-.07-.19-.04-.05-.07-.07-.24-.07h-.16v1.07c0,.17.02.19.23.21v.06h-.63v-.06c.2-.01.22-.04.22-.21v-1.07h-.14c-.18,0-.23.02-.26.07-.03.04-.05.1-.07.19h-.06c0-.13.02-.27.03-.39h.05c.03.05.06.05.12.05h.87c.06,0,.08-.01.11-.05h.05c0,.1,0,.26.02.38h-.06s-.02,0-.02,0Z"/>
      <path class="st2" d="M43.12,55.52v-.06c.18-.01.2-.03.2-.21v-.87c0-.18-.02-.2-.2-.21v-.06h.59v.06c-.18.01-.2.03-.2.21v.87c0,.19.02.2.2.21v.06h-.59Z"/>
      <path class="st2" d="M45.52,54.8c0,.47-.33.76-.74.76s-.72-.31-.72-.72c0-.39.28-.75.74-.75.38,0,.71.28.71.72ZM44.29,54.77c0,.41.23.71.54.71.25,0,.47-.2.47-.62,0-.46-.24-.7-.53-.7-.25,0-.47.21-.47.61h0Z"/>
      <path class="st2" d="M47.48,54.17c-.12,0-.18.04-.18.13,0,.06-.01.16-.01.37v.87h-.07l-.94-1.14h0v.55c0,.2,0,.3.01.37,0,.11.06.14.21.15v.06h-.52v-.06c.13,0,.18-.04.19-.14,0-.07.01-.17.01-.37v-.48c0-.16,0-.16-.05-.22-.05-.05-.09-.07-.2-.08v-.06h.33l.92,1.09h0v-.53c0-.2,0-.3-.01-.36,0-.1-.06-.12-.22-.13v-.06h.52v.06h0Z"/>
      <rect class="st2" x="12.87" y="53.29" width="34.76" height=".14"/>
      <g>
        <path class="st2" d="M19.13,44.95c0-2.07-2.19-3.07-4.81-3.07-2.79,0-5.35,1.24-6.29,3.15-.26.51-.39,1.07-.39,1.65,0,.5.12.99.39,1.4.4.6,1.12.97,2.18.97,1.3,0,2.32-.71,2.32-1.95,0,0,.02-.34-.38-.34-.33,0-.41.23-.4.34.05.97-.53,1.75-1.55,1.75-1.15,0-1.63-.98-1.63-2.02,0-2.14,1.61-3.56,3.29-4.17.79-.3,1.61-.44,2.46-.43,1.9,0,3.45.73,3.45,2.68,0,1.63-1.37,3.02-3.01,3.14l.07-.22c.33-1.2.75-2.51,1.42-3.48.04-.06.11-.16.18-.25l-.1-.11c-.14.09-.28.18-.41.29-3.14,2.46-3.24,9.36-7.43,9.36-.14,0-.29,0-.43-.03-.87-.14-1.33-.73-1.33-1.54,0-.16.06-.38.06-.51,0-.23-.18-.43-.41-.43h-.05c-.38,0-.53.3-.54.72-.03,1.22.87,1.93,2.26,2.06.15,0,.31.02.47.02,3.27,0,5.27-2.47,6.12-5.47.43-.05.86-.14,1.27-.27,1.52-.42,3.22-1.44,3.22-3.23h0Z"/>
        <path class="st2" d="M50.27,45.67h-1.15l-.26.6-.45,1.02h-.54l-.16.34h.55l-.67,1.48c-.48,1.04-1.23,2.07-1.66,2.07-.1,0-.15-.04-.15-.13s.03-.18.13-.45c.13-.32.36-.78.52-1.11.24-.49.62-1.25.62-1.62s-.24-.67-.71-.67c-.53,0-1.01.32-1.45.77l.29-.69h-1.09l-.88,2.02c-.36.71-1.07,1.89-1.53,1.89-.1,0-.13-.06-.13-.15,0-.09.03-.16.07-.25.04-.09.57-1.32.57-1.32l.96-2.19h-1.17l-.93,2.14c-.29.66-1.02,1.78-1.48,1.78-.08,0-.15-.05-.16-.13v-.04c0-.11.09-.33.15-.48l.49-1.07,1.01-2.19h-1.16l-.23.5c-.17.33-.46.73-.92.73-.22,0-.33-.09-.38-.17-.07-.74-.54-1.13-1.23-1.13-.96,0-1.64.57-2.09,1.26-.3.48-.53.98-.69,1.53-.41.68-.84,1.21-1.19,1.21-.09,0-.14-.05-.14-.16s.11-.38.16-.47l.76-1.61c.21-.5.35-.82.35-1.15,0-.34-.24-.6-.63-.6-.55,0-1.14.32-1.61.83.02-.09.02-.16.02-.25,0-.38-.19-.59-.59-.59-.5,0-1.02.3-1.48.83l.31-.75h-1.05l-.89,2.02c-.42.95-1.1,1.89-1.48,1.89-.09,0-.14-.05-.14-.16,0-.18.2-.63.28-.82l1.18-2.68c.09-.2-.48-.33-1.2-.33s-1.49.37-2.05.83c-.39.33-.68.49-.82.49-.08,0-.11-.04-.11-.09,0-.16.39-.62.39-.98,0-.16-.09-.27-.31-.27-.42,0-.92.4-1.28.82l.31-.74h-1.04l-.89,2.02c-.42.95-1.12,1.94-1.51,1.94-.09,0-.14-.05-.14-.16,0-.18.19-.62.3-.85l1.18-2.68c.09-.2-.48-.33-1.2-.33-1.06,0-2.1.72-2.65,1.46-.6.8-1.02,1.64-1.03,2.33,0,.55.28.9.85.9.64,0,1.16-.51,1.46-.89-.02.08-.03.16-.04.23,0,.38.15.66.62.66.41,0,.96-.34,1.4-.89l-.35.82h1.12l1.1-2.5c.37-.82.77-1.24.89-1.24.04,0,.06.02.06.05,0,.09-.17.32-.17.53s.11.38.42.38c.24,0,.51-.11.75-.27-.57.77-.95,1.57-.95,2.24,0,.55.28.9.85.9.6,0,1.17-.58,1.48-.96,0,.09-.02.17-.02.27,0,.38.21.69.64.69.48,0,.86-.3,1.34-.88l-.35.81h1.15l1.05-2.39c.46-1.04,1.09-1.59,1.39-1.59.08,0,.14.05.15.12v.03c0,.11-.05.23-.1.33l-1.52,3.5h1.18l1.07-2.44c.46-1.04.97-1.55,1.35-1.55.11,0,.16.06.16.18,0,.13-.05.27-.11.38l-1.04,2.2c-.1.21-.15.44-.17.67,0,.33.18.63.7.63.67,0,1.18-.51,1.75-1.26v.16c.05.6.38,1.13,1.27,1.13,1.05,0,1.91-.73,2.43-1.89.19-.41.33-.84.38-1.3.11.06.25.09.38.08.17,0,.34-.04.5-.12l-.18.39c-.21.44-.44.93-.62,1.34-.11.24-.18.51-.2.77,0,.41.23.71.7.71s1.11-.44,1.57-1.06h0c-.03.12-.05.26-.05.39,0,.34.11.67.59.67.55,0,.98-.4,1.41-.91l-.35.81h1.16l.93-2.11c.53-1.19,1.05-1.91,1.54-1.91.09,0,.15.06.16.14v.03c0,.2-.29.75-.55,1.3-.24.5-.42.88-.55,1.18-.11.25-.18.52-.2.8,0,.37.2.64.65.64.67,0,1.35-.65,1.72-1.14-.09.24-.12.48-.13.73,0,.67.4,1.01.97,1.01.38,0,.74-.12,1.04-.34.44-.31.8-.77,1.09-1.19l-.2-.19c-.28.39-.59.77-.9,1-.17.14-.38.22-.6.23-.24,0-.39-.12-.39-.43s.14-.72.37-1.27c0,0,.33-.72.62-1.4.25-.58.5-1.13.55-1.25h.76l.16-.34h-.75l.71-1.62h-.02ZM17.56,51.2c-.16,0-.28-.06-.28-.27,0-.57.48-1.57,1.06-2.38.41-.55.95-.97,1.53-.97l-.73,1.63c-.55,1.23-1.14,1.98-1.58,1.98h0ZM24.73,51.2c-.16,0-.28-.06-.29-.27,0-.57.48-1.57,1.06-2.38.41-.55.95-.97,1.53-.97l-.73,1.63c-.55,1.26-1.12,1.98-1.57,1.98h0ZM37.47,48.03c-.03.62-.58,2.13-1.22,3.03-.26.37-.48.47-.67.47-.27,0-.34-.22-.31-.55.06-.57.53-1.89,1.18-2.8.3-.41.5-.59.73-.59s.3.19.29.43h0Z"/>
        <polygon class="st2" points="55.36 47.29 56.42 44.85 55.17 44.85 54.11 47.29 51.45 47.29 51.01 48.31 53.67 48.31 52.61 50.75 53.86 50.75 54.92 48.31 57.57 48.31 58.02 47.29 55.36 47.29"/>
      </g>
    </g>
  </g>
</svg>