<svg width="108" height="39" viewBox="0 0 108 39" fill="none" xmlns="http://www.w3.org/2000/svg">
<path d="M6.65771 28.0895C17.4918 26.4287 17.867 40.5152 5.71079 38.2534C0.35205 37.2567 0.0157531 29.4226 6.65771 28.0895Z" fill="#171717"/>
<path fill-rule="evenodd" clip-rule="evenodd" d="M64.032 12.965C70.311 12.965 73.8536 17.2943 73.8536 23.6073C73.8536 24.0528 73.8148 24.4571 73.7334 24.7813C73.6921 24.9027 73.612 24.984 73.5319 24.984H58.5178C58.3965 24.984 58.3164 25.0654 58.3164 25.1867C58.3164 28.1405 60.4494 30.8114 64.032 30.8114C66.9311 30.8114 68.2994 29.5974 69.1444 27.9778C69.1844 27.8564 69.3059 27.7751 69.4261 27.7751H73.0087C73.1701 27.7751 73.2503 27.8564 73.2102 27.9778C72.1236 31.9842 68.5798 34.2508 64.032 34.2508C58.0335 34.2508 54.2506 29.9603 54.2506 23.6073C54.2506 17.2542 57.753 12.965 64.032 12.965ZM64.032 16.4032C60.5089 16.4032 58.6903 19.2028 58.3686 21.1477C58.2994 21.5677 58.6247 21.9477 59.0484 21.9477H68.9514C69.3617 21.9477 69.681 21.5871 69.6348 21.1767C69.3872 18.9696 67.5551 16.4032 64.032 16.4032Z" fill="#171717"/>
<path fill-rule="evenodd" clip-rule="evenodd" d="M80.1157 5.35663C80.2273 5.35664 80.3172 5.44768 80.3172 5.55937V14.1415C80.3172 14.7375 81.0299 14.9511 81.3176 14.7375C82.313 13.9994 84.3268 12.9652 86.4754 12.965C92.3923 12.9653 96.0548 17.2933 96.0548 23.6073C96.0548 29.9215 92.392 34.2508 86.4748 34.2508C84.5542 34.2508 82.4041 33.3366 81.19 32.3836C80.7396 32.0303 80.2359 32.3351 80.1497 32.6968C80.0938 32.9348 79.9141 33.6438 79.9141 33.6438C79.8728 33.7652 79.7927 33.8465 79.7126 33.8465H76.6945C76.5828 33.8465 76.493 33.7555 76.493 33.6438V5.55937C76.493 5.44768 76.5828 5.35663 76.6945 5.35663H80.1157ZM86.073 16.4056C82.4102 16.4056 80.3172 19.4006 80.3172 23.6085C80.3172 27.8163 82.4102 30.8114 86.073 30.8114C89.9373 30.8114 92.2318 27.8163 92.2318 23.6085C92.2318 19.4007 89.9372 16.4056 86.073 16.4056Z" fill="#171717"/>
<path fill-rule="evenodd" clip-rule="evenodd" d="M46.0253 5.35663C50.4129 5.35663 54.2372 9.20029 54.2372 14.0164C54.2372 18.8325 50.4129 22.5147 46.0253 22.5147H39.2134C39.1017 22.5147 39.0119 22.6057 39.0119 22.7174V33.6438C39.0119 33.7555 38.922 33.8465 38.8103 33.8465H35.3892C35.2775 33.8465 35.1877 33.7555 35.1877 33.6438V5.55937C35.1877 5.44768 35.2775 5.35663 35.3892 5.35663H46.0253ZM39.7002 8.7972C39.3202 8.7972 39.0131 9.10562 39.0131 9.48804V18.3844C39.0131 18.7656 39.3202 19.0753 39.7002 19.0753H45.5422V19.0765C48.0783 19.0764 50.4129 16.8099 50.4129 14.0176C50.4129 11.2253 48.0783 8.79722 45.5422 8.7972H39.7002Z" fill="#171717"/>
<path d="M102.204 5.35663C102.316 5.35664 102.405 5.44768 102.405 5.55937V25.5073C102.405 27.9451 104.371 29.9215 106.797 29.9215H107.587C107.699 29.9215 107.788 30.0126 107.788 30.1242V33.5636C107.788 33.6753 107.699 33.7663 107.587 33.7663H106.797C102.26 33.7663 98.5812 30.0684 98.5812 25.5073V5.55937C98.5812 5.44768 98.671 5.35663 98.7827 5.35663H102.204Z" fill="#171717"/>
<path d="M5.31373 0.961784C16.0398 -1.70546 30.0462 7.58924 24.1181 18.348C21.8891 22.9031 13.6178 25.9783 7.64353 25.4077C4.69462 25.1273 2.61126 23.5526 1.67766 20.1388C0.745279 16.7248 -0.437132 2.39194 5.31373 0.961784Z" fill="#171717"/>
</svg>
