<svg xmlns="http://www.w3.org/2000/svg" viewBox="0 0 200 200" width="200" height="200" role="img" aria-label="Stardust logo">
  <defs>
    <radialGradient id="lBg" cx="50%" cy="50%" r="70%">
      <stop offset="0" stop-color="#151e42"/>
      <stop offset="1" stop-color="#08101f"/>
    </radialGradient>
  </defs>
  <rect width="200" height="200" fill="url(#lBg)" rx="20"/>
  <g font-family="ui-monospace, Menlo, monospace" font-size="10" fill="#f5f0e6" opacity="0.14" letter-spacing="1">
    <text x="10" y="24">a3f7</text>
    <text x="150" y="24">c92e</text>
    <text x="10" y="186">b1d4</text>
    <text x="150" y="186">8a0c</text>
  </g>
  <g fill="#e8b95e">
    <rect x="92" y="26" width="16" height="16"/>
    <rect x="92" y="46" width="16" height="16" opacity="0.7"/>
    <rect x="92" y="66" width="16" height="16" opacity="0.5"/>
    <rect x="92" y="118" width="16" height="16" opacity="0.5"/>
    <rect x="92" y="138" width="16" height="16" opacity="0.7"/>
    <rect x="92" y="158" width="16" height="16"/>
    <rect x="26" y="92" width="16" height="16"/>
    <rect x="46" y="92" width="16" height="16" opacity="0.7"/>
    <rect x="66" y="92" width="16" height="16" opacity="0.5"/>
    <rect x="118" y="92" width="16" height="16" opacity="0.5"/>
    <rect x="138" y="92" width="16" height="16" opacity="0.7"/>
    <rect x="158" y="92" width="16" height="16"/>
  </g>
  <rect x="85" y="85" width="30" height="30" fill="#ffd98a"/>
  <g fill="#e8b95e" opacity="0.6">
    <rect x="60" y="60" width="12" height="12"/>
    <rect x="128" y="60" width="12" height="12"/>
    <rect x="60" y="128" width="12" height="12"/>
    <rect x="128" y="128" width="12" height="12"/>
  </g>
</svg>
